<?xml version="1.0" encoding="UTF-8" standalone="no" ?>
<!DOCTYPE svg PUBLIC "-//W3C//DTD SVG 1.1//EN" "http://www.w3.org/Graphics/SVG/1.1/DTD/svg11.dtd">
<svg xmlns="http://www.w3.org/2000/svg" xmlns:xlink="http://www.w3.org/1999/xlink" version="1.1" width="636" height="810" viewBox="0 0 636 810" xml:space="preserve">
<desc>Created with Fabric.js 5.2.4</desc>
<defs>
</defs>
<g transform="matrix(0 0 0 0 0 0)" id="fce46689-d718-4124-95fa-b78dfc60b785"  >
</g>
<g transform="matrix(1 0 0 1 318 405)" id="daa74848-b493-4097-9880-c4dead2f9138"  >
<rect style="stroke: none; stroke-width: 1; stroke-dasharray: none; stroke-linecap: butt; stroke-dashoffset: 0; stroke-linejoin: miter; stroke-miterlimit: 4; fill: rgb(146,227,169); fill-rule: nonzero; opacity: 1;" vector-effect="non-scaling-stroke"  x="-318" y="-405" rx="0" ry="0" width="636" height="810" />
</g>
<g transform="matrix(0.59 0 0 0.59 470.6 644.59)"  >
<g style="" vector-effect="non-scaling-stroke"   >
		<g transform="matrix(1 0 0 1 0 -21.48)"  >
<path style="stroke: none; stroke-width: 1; stroke-dasharray: none; stroke-linecap: butt; stroke-dashoffset: 0; stroke-linejoin: miter; stroke-miterlimit: 4; fill: rgb(146,227,169); fill-rule: nonzero; opacity: 1;" vector-effect="non-scaling-stroke"  transform=" translate(-244.6, -226.83)" d="M 477.682 276.662 C 477.682 276.662 477.606 135.72799999999998 402.12800000000004 68.41799999999998 C 335.502 9.001 243.769 -3.069 182.171 65.637 C 160.22299999999998 90.118 133.682 115.631 106.115 132.736 C 75.20599999999999 151.915 39.07499999999999 160.677 18.037999999999997 224.182 C -2.999 287.688 29.576 380.81 77.357 413.781 C 125.138 446.751 200.01 434.497 264.325 420.711 C 328.64 406.925 472.075 451.537 477.682 276.662 z" stroke-linecap="round" />
</g>
		<g transform="matrix(1 0 0 1 0 -21.48)"  >
<path style="stroke: none; stroke-width: 1; stroke-dasharray: none; stroke-linecap: butt; stroke-dashoffset: 0; stroke-linejoin: miter; stroke-miterlimit: 4; fill: rgb(255,255,255); fill-rule: nonzero; opacity: 0.7;" vector-effect="non-scaling-stroke"  transform=" translate(-244.6, -226.83)" d="M 477.682 276.662 C 477.682 276.662 477.606 135.72799999999998 402.12800000000004 68.41799999999998 C 335.502 9.001 243.769 -3.069 182.171 65.637 C 160.22299999999998 90.118 133.682 115.631 106.115 132.736 C 75.20599999999999 151.915 39.07499999999999 160.677 18.037999999999997 224.182 C -2.999 287.688 29.576 380.81 77.357 413.781 C 125.138 446.751 200.01 434.497 264.325 420.711 C 328.64 406.925 472.075 451.537 477.682 276.662 z" stroke-linecap="round" />
</g>
		<g transform="matrix(1 0 0 1 3.66 210.78)"  >
<ellipse style="stroke: none; stroke-width: 1; stroke-dasharray: none; stroke-linecap: butt; stroke-dashoffset: 0; stroke-linejoin: miter; stroke-miterlimit: 4; fill: rgb(0,0,0); fill-rule: nonzero; opacity: 0.16;" vector-effect="non-scaling-stroke"  cx="0" cy="0" rx="153.392" ry="18.71" />
</g>
		<g transform="matrix(1 0 0 1 -0.1 -21.48)"  >
<path style="stroke: none; stroke-width: 1; stroke-dasharray: none; stroke-linecap: butt; stroke-dashoffset: 0; stroke-linejoin: miter; stroke-miterlimit: 4; fill: rgb(0,0,0); fill-rule: nonzero; opacity: 0.07;" vector-effect="non-scaling-stroke"  transform=" translate(-244.5, -226.83)" d="M 402.132 68.415 C 391.38800000000003 58.83200000000001 379.992 50.48700000000001 368.176 43.519000000000005 L 268.359 193.53 L 404.009 70.131 C 403.393 69.545 402.765 68.976 402.132 68.415 z M 312.802 21.813 C 296.98900000000003 18.607 281.05600000000004 17.924 265.46900000000005 20.023999999999997 L 268.35800000000006 193.53 L 312.802 21.813 z M 208.182 42.461 C 199.063 48.816 190.351 56.513999999999996 182.171 65.639 C 179.457 68.673 176.672 71.70599999999999 173.82399999999998 74.758 L 268.359 193.53 L 208.182 42.461 z M 126.286 118.685 C 119.656 123.786 112.916 128.518 106.12 132.736 C 91.149 142.018 74.95500000000001 148.869 59.851000000000006 160.676 L 268.35900000000004 193.52999999999997 L 126.286 118.685 z M 11.886 256.813 C 10.061 283.881 15.193999999999999 313.183 25.122 339.678 L 268.359 193.53 L 11.886 256.813 z M 268.359 193.53 L 94.706 423.357 C 119.973 434.338 150.339 436.321 181.813 433.93600000000004 L 268.359 193.53 z M 268.359 193.53 L 276.62399999999997 418.812 C 294.465 416.901 316.26599999999996 417.494 338.84799999999996 416.522 L 268.359 193.53 z M 463.304 349.634 L 268.359 193.53 L 420.13599999999997 398.139 C 437.814 388.252 452.967 373.06 463.304 349.634 z M 471.548 214.999 L 268.358 193.53 L 477.486 269.262 C 477.063 259.049 475.731 239.127 471.548 214.999 z M 438.637 115.319 L 268.359 193.53 L 456.514 155.848 C 451.725 142.12 445.849 128.38 438.637 115.319 z" stroke-linecap="round" />
</g>
		<g transform="matrix(1 0 0 1 142.2 -147.43)"  >
<path style="stroke: rgb(38,50,56); stroke-width: 0.75; stroke-dasharray: none; stroke-linecap: butt; stroke-dashoffset: 0; stroke-linejoin: miter; stroke-miterlimit: 10; fill: rgb(255,255,255); fill-rule: nonzero; opacity: 1;" vector-effect="non-scaling-stroke"  transform=" translate(-386.81, -100.88)" d="M 412.985 89.879 C 412.985 89.879 402.084 93.18900000000001 398.21000000000004 93.229 C 394.336 93.269 382.82300000000004 91.359 377.58000000000004 87.304 C 372.33700000000005 83.24900000000001 367.68500000000006 78.382 364.43500000000006 74.658 C 361.18500000000006 70.934 358.76900000000006 71.102 358.5330000000001 75.95400000000001 C 358.2970000000001 80.80600000000001 361.1240000000001 86.394 364.07700000000006 89.159 C 367.03000000000003 91.924 371.77400000000006 94.19000000000001 371.97700000000003 95.02000000000001 C 372.18 95.85000000000001 372.71700000000004 97.418 372.71700000000004 97.418 C 372.71700000000004 97.418 364.19700000000006 102.147 359.07000000000005 104.254 C 353.94300000000004 106.361 350.18100000000004 108.467 351.40000000000003 110.717 C 352.619 112.967 355.831 115.547 357.65900000000005 117.557 C 359.487 119.566 369.76800000000003 126.846 373.0160000000001 127.84 C 376.26400000000007 128.834 378.88400000000007 129.496 380.4700000000001 129.532 C 382.0570000000001 129.568 382.5180000000001 130.21300000000002 385.1550000000001 128.717 C 387.7920000000001 127.22100000000002 390.9090000000001 125.57700000000001 391.99700000000007 125.18800000000002 C 393.0850000000001 124.80000000000001 394.63500000000005 125.05700000000002 398.8020000000001 121.88100000000001 C 402.96900000000005 118.70500000000001 406.25000000000006 115.38200000000002 406.25000000000006 115.38200000000002 L 422.4440000000001 111.01600000000002 L 412.985 89.879 z" stroke-linecap="round" />
</g>
		<g transform="matrix(1 0 0 1 173.64 -146.04)"  >
<polygon style="stroke: rgb(38,50,56); stroke-width: 0.75; stroke-dasharray: none; stroke-linecap: butt; stroke-dashoffset: 0; stroke-linejoin: miter; stroke-miterlimit: 10; fill: rgb(255,255,255); fill-rule: nonzero; opacity: 1;" vector-effect="non-scaling-stroke"  points="-11.14,-11.9 0,14.86 11.14,12.16 -1.55,-14.86 " />
</g>
		<g transform="matrix(1 0 0 1 189.61 -149.26)"  >
<polygon style="stroke: rgb(38,50,56); stroke-width: 0.75; stroke-dasharray: none; stroke-linecap: butt; stroke-dashoffset: 0; stroke-linejoin: miter; stroke-miterlimit: 10; fill: rgb(38,50,56); fill-rule: nonzero; opacity: 1;" vector-effect="non-scaling-stroke"  points="-2.17,-19.87 -22.02,-11.92 -8.64,19.87 22.02,14.15 20.64,12 " />
</g>
		<g transform="matrix(1 0 0 1 135.71 -143.09)"  >
<path style="stroke: rgb(38,50,56); stroke-width: 0.75; stroke-dasharray: none; stroke-linecap: butt; stroke-dashoffset: 0; stroke-linejoin: miter; stroke-miterlimit: 10; fill: none; fill-rule: nonzero; opacity: 1;" vector-effect="non-scaling-stroke"  transform=" translate(-380.31, -105.23)" d="M 373.033 98.949 C 373.033 98.949 376.858 106.75 378.058 108.428 C 379.258 110.106 386.104 112.038 387.58 111.37299999999999" stroke-linecap="round" />
</g>
		<g transform="matrix(1 0 0 1 135.18 -123.26)"  >
<path style="stroke: rgb(38,50,56); stroke-width: 0.75; stroke-dasharray: none; stroke-linecap: butt; stroke-dashoffset: 0; stroke-linejoin: miter; stroke-miterlimit: 10; fill: rgb(255,255,255); fill-rule: nonzero; opacity: 1;" vector-effect="non-scaling-stroke"  transform=" translate(-379.78, -125.04)" d="M 383.01 118.349 C 383.01 118.349 385.279 117.702 385.871 119.62 C 386.46299999999997 121.53800000000001 384.15999999999997 126.50200000000001 383.092 128.828 C 382.024 131.153 381.286 131.486 378.39 131.802 C 375.49399999999997 132.118 373.59299999999996 130.551 373.59299999999996 130.551 C 373.59299999999996 130.551 376.727 128.113 377.188 127.39399999999999 C 377.647 126.673 383.01 118.349 383.01 118.349 z" stroke-linecap="round" />
</g>
		<g transform="matrix(1 0 0 1 129.2 -125.93)"  >
<path style="stroke: rgb(38,50,56); stroke-width: 0.75; stroke-dasharray: none; stroke-linecap: butt; stroke-dashoffset: 0; stroke-linejoin: miter; stroke-miterlimit: 10; fill: rgb(255,255,255); fill-rule: nonzero; opacity: 1;" vector-effect="non-scaling-stroke"  transform=" translate(-373.8, -122.39)" d="M 365.766 125.612 C 365.766 125.612 370.014 131.549 371.803 131.04999999999998 C 373.592 130.54999999999998 375.805 129.55299999999997 376.616 128.777 C 377.42699999999996 128.00199999999998 382.01599999999996 121.59699999999998 382.62399999999997 119.99099999999999 C 383.23199999999997 118.38599999999998 383.193 115.87699999999998 381.43899999999996 114.78899999999999 C 379.686 113.70199999999998 379.686 113.70199999999998 379.686 113.70199999999998 C 379.686 113.70199999999998 377.34499999999997 116.15699999999998 374.118 118.46599999999998 C 370.891 120.77399999999997 364.73199999999997 123.61999999999998 364.622 124.28399999999998 C 364.511 124.949 365.766 125.612 365.766 125.612 z" stroke-linecap="round" />
</g>
		<g transform="matrix(1 0 0 1 124.26 -130.08)"  >
<path style="stroke: rgb(38,50,56); stroke-width: 0.75; stroke-dasharray: none; stroke-linecap: butt; stroke-dashoffset: 0; stroke-linejoin: miter; stroke-miterlimit: 10; fill: rgb(255,255,255); fill-rule: nonzero; opacity: 1;" vector-effect="non-scaling-stroke"  transform=" translate(-368.86, -118.23)" d="M 358.105 118.995 C 358.105 118.995 357.608 119.936 358.439 121.098 C 359.27000000000004 122.26 360.214 126.853 362.85200000000003 126.721 C 365.49 126.59 371.81500000000005 123.43 372.97700000000003 122.599 C 374.139 121.768 379.225 114.422 379.68500000000006 113.702 C 380.1460000000001 112.982 378.48400000000004 110.65899999999999 377.57900000000006 109.94 C 376.6740000000001 109.221 374.1670000000001 110.625 374.1670000000001 110.625 C 374.1670000000001 110.625 364.044 117.477 358.105 118.995 z" stroke-linecap="round" />
</g>
		<g transform="matrix(1 0 0 1 118.01 -135.82)"  >
<path style="stroke: rgb(38,50,56); stroke-width: 0.75; stroke-dasharray: none; stroke-linecap: butt; stroke-dashoffset: 0; stroke-linejoin: miter; stroke-miterlimit: 10; fill: rgb(255,255,255); fill-rule: nonzero; opacity: 1;" vector-effect="non-scaling-stroke"  transform=" translate(-362.6, -112.5)" d="M 355.828 108.721 C 355.828 108.721 362.174 108.864 363.133 108.568 C 364.092 108.27199999999999 371.027 106.238 371.027 106.238 C 371.027 106.238 372.079 106.071 373.187 107.62 C 374.295 109.16900000000001 373.78000000000003 110.903 372.67400000000004 112.08500000000001 C 371.56800000000004 113.26700000000001 367.47600000000006 117.36500000000001 365.336 117.92 C 363.196 118.47500000000001 357.699 118.70100000000001 355.983 118.757 C 354.267 118.81400000000001 353.4 117.87400000000001 353.029 115.992 C 352.659 114.111 351.402 110.717 351.402 110.717" stroke-linecap="round" />
</g>
		<g transform="matrix(1 0 0 1 168.87 75.7)"  >
<path style="stroke: rgb(38,50,56); stroke-width: 0.75; stroke-dasharray: none; stroke-linecap: butt; stroke-dashoffset: 0; stroke-linejoin: miter; stroke-miterlimit: 10; fill: rgb(255,255,255); fill-rule: nonzero; opacity: 1;" vector-effect="non-scaling-stroke"  transform=" translate(-413.46, -324.01)" d="M 444.598 335.276 C 444.598 335.276 433.80600000000004 331.62600000000003 430.63300000000004 329.404 C 427.45900000000006 327.182 419.20700000000005 318.93 417.302 312.582 C 415.398 306.234 414.445 299.569 413.969 294.649 C 413.493 289.729 411.43 288.46 408.415 292.269 C 405.40000000000003 296.07800000000003 404.44800000000004 302.267 405.24100000000004 306.234 C 406.03400000000005 310.20099999999996 408.57400000000007 314.804 408.25600000000003 315.597 C 407.939 316.39099999999996 407.46200000000005 317.97799999999995 407.46200000000005 317.97799999999995 C 407.46200000000005 317.97799999999995 397.78100000000006 316.86699999999996 392.386 315.597 C 386.99 314.327 382.70500000000004 313.851 382.38800000000003 316.39099999999996 C 382.071 318.92999999999995 383.18100000000004 322.89799999999997 383.499 325.59599999999995 C 383.81600000000003 328.2939999999999 387.94300000000004 340.19599999999997 390.00600000000003 342.89399999999995 C 392.069 345.5919999999999 393.81500000000005 347.655 395.084 348.60699999999997 C 396.354 349.55899999999997 396.354 350.35299999999995 399.369 350.66999999999996 C 402.384 350.98699999999997 405.87600000000003 351.46299999999997 406.987 351.78099999999995 C 408.098 352.09799999999996 409.209 353.20899999999995 414.446 353.05099999999993 C 419.68300000000005 352.8929999999999 424.285 352.09899999999993 424.285 352.09899999999993 L 439.99600000000004 357.97099999999995 L 444.598 335.276 z" stroke-linecap="round" />
</g>
		<g transform="matrix(1 0 0 1 196.43 100.21)"  >
<polygon style="stroke: rgb(38,50,56); stroke-width: 0.75; stroke-dasharray: none; stroke-linecap: butt; stroke-dashoffset: 0; stroke-linejoin: miter; stroke-miterlimit: 10; fill: rgb(255,255,255); fill-rule: nonzero; opacity: 1;" vector-effect="non-scaling-stroke"  points="-1.51,-16.27 -8.01,11.98 2.62,16.27 8.01,-13.09 " />
</g>
		<g transform="matrix(1 0 0 1 207.53 107.68)"  >
<polygon style="stroke: rgb(38,50,56); stroke-width: 0.75; stroke-dasharray: none; stroke-linecap: butt; stroke-dashoffset: 0; stroke-linejoin: miter; stroke-miterlimit: 10; fill: rgb(38,50,56); fill-rule: nonzero; opacity: 1;" vector-effect="non-scaling-stroke"  points="14.19,-18.33 -6.58,-23.42 -14.19,10.23 14.07,23.42 14.19,20.86 " />
</g>
		<g transform="matrix(1 0 0 1 163.81 80.38)"  >
<path style="stroke: rgb(38,50,56); stroke-width: 0.75; stroke-dasharray: none; stroke-linecap: butt; stroke-dashoffset: 0; stroke-linejoin: miter; stroke-miterlimit: 10; fill: none; fill-rule: nonzero; opacity: 1;" vector-effect="non-scaling-stroke"  transform=" translate(-408.42, -328.69)" d="M 406.828 319.406 C 406.828 319.406 405.4 327.976 405.4 330.039 C 405.4 332.102 409.844 337.656 411.431 337.974" stroke-linecap="round" />
</g>
		<g transform="matrix(1 0 0 1 152.53 97.39)"  >
<path style="stroke: rgb(38,50,56); stroke-width: 0.75; stroke-dasharray: none; stroke-linecap: butt; stroke-dashoffset: 0; stroke-linejoin: miter; stroke-miterlimit: 10; fill: rgb(255,255,255); fill-rule: nonzero; opacity: 1;" vector-effect="non-scaling-stroke"  transform=" translate(-397.13, -345.71)" d="M 403.654 340.99 C 403.654 340.99 405.876 341.783 405.241 343.688 C 404.606 345.592 399.84499999999997 348.28999999999996 397.623 349.56 C 395.401 350.83 394.608 350.671 392.069 349.243 C 389.53000000000003 347.815 388.89500000000004 345.43399999999997 388.89500000000004 345.43399999999997 C 388.89500000000004 345.43399999999997 392.862 345.275 393.65600000000006 344.95799999999997 C 394.449 344.64 403.654 340.99 403.654 340.99 z" stroke-linecap="round" />
</g>
		<g transform="matrix(1 0 0 1 150.27 92.08)"  >
<path style="stroke: rgb(38,50,56); stroke-width: 0.75; stroke-dasharray: none; stroke-linecap: butt; stroke-dashoffset: 0; stroke-linejoin: miter; stroke-miterlimit: 10; fill: rgb(255,255,255); fill-rule: nonzero; opacity: 1;" vector-effect="non-scaling-stroke"  transform=" translate(-394.87, -340.4)" d="M 385.403 336.863 C 385.403 336.863 385.403 344.163 387.149 344.798 C 388.895 345.433 391.275 345.909 392.386 345.75 C 393.497 345.591 400.956 343.052 402.384 342.1 C 403.812 341.148 405.24100000000004 339.08500000000004 404.447 337.18 C 403.653 335.276 403.653 335.276 403.653 335.276 C 403.653 335.276 400.32 335.911 396.353 335.911 C 392.386 335.911 385.72 334.641 385.244 335.118 C 384.76800000000003 335.59499999999997 385.403 336.863 385.403 336.863 z" stroke-linecap="round" />
</g>
		<g transform="matrix(1 0 0 1 148.21 84.51)"  >
<path style="stroke: rgb(38,50,56); stroke-width: 0.75; stroke-dasharray: none; stroke-linecap: butt; stroke-dashoffset: 0; stroke-linejoin: miter; stroke-miterlimit: 10; fill: rgb(255,255,255); fill-rule: nonzero; opacity: 1;" vector-effect="non-scaling-stroke"  transform=" translate(-392.82, -332.82)" d="M 383.023 327.024 C 383.023 327.024 382.071 327.5 382.071 328.928 C 382.071 330.356 380.16700000000003 334.641 382.38800000000003 336.069 C 384.61 337.497 391.59200000000004 338.608 393.021 338.608 C 394.449 338.608 402.86 335.593 403.654 335.275 C 404.448 334.95799999999997 404.448 332.101 404.13 330.98999999999995 C 403.813 329.87899999999996 400.956 329.56199999999995 400.956 329.56199999999995 C 400.956 329.56199999999995 388.736 329.246 383.023 327.024 z" stroke-linecap="round" />
</g>
		<g transform="matrix(1 0 0 1 146.44 75.21)"  >
<path style="stroke: rgb(38,50,56); stroke-width: 0.75; stroke-dasharray: none; stroke-linecap: butt; stroke-dashoffset: 0; stroke-linejoin: miter; stroke-miterlimit: 10; fill: rgb(255,255,255); fill-rule: nonzero; opacity: 1;" vector-effect="non-scaling-stroke"  transform=" translate(-391.04, -323.53)" d="M 387.149 317.343 C 387.149 317.343 392.227 321.15200000000004 393.18 321.469 C 394.132 321.786 400.956 324.167 400.956 324.167 C 400.956 324.167 401.908 324.643 401.908 326.54699999999997 C 401.908 328.45099999999996 400.48 329.56199999999995 398.89300000000003 329.88 C 397.30600000000004 330.197 391.593 331.15 389.53000000000003 330.356 C 387.46700000000004 329.563 382.865 326.54699999999997 381.43600000000004 325.59499999999997 C 380.00800000000004 324.643 379.84900000000005 323.373 380.64300000000003 321.628 C 381.43600000000004 319.882 382.389 316.39099999999996 382.389 316.39099999999996" stroke-linecap="round" />
</g>
		<g transform="matrix(1 0 0 1 -149.63 72.11)"  >
<path style="stroke: rgb(38,50,56); stroke-width: 0.75; stroke-dasharray: none; stroke-linecap: butt; stroke-dashoffset: 0; stroke-linejoin: miter; stroke-miterlimit: 10; fill: rgb(255,255,255); fill-rule: nonzero; opacity: 1;" vector-effect="non-scaling-stroke"  transform=" translate(-94.97, -320.42)" d="M 63.837 331.689 C 63.837 331.689 74.629 328.03900000000004 77.802 325.817 C 80.97600000000001 323.595 89.22800000000001 315.343 91.13300000000001 308.995 C 93.037 302.647 93.99000000000001 295.982 94.46600000000001 291.062 C 94.94200000000001 286.142 97.00500000000001 284.873 100.02100000000002 288.682 C 103.03600000000002 292.49100000000004 103.98800000000001 298.68 103.19500000000002 302.647 C 102.40100000000002 306.614 99.86200000000002 311.217 100.18000000000002 312.01 C 100.49700000000001 312.803 100.97300000000003 314.39 100.97300000000003 314.39 C 100.97300000000003 314.39 110.65400000000002 313.279 116.04900000000004 312.01 C 121.44500000000004 310.74 125.73000000000003 310.264 126.04700000000004 312.803 C 126.36400000000003 315.342 125.25300000000004 319.31 124.93600000000004 322.008 C 124.61900000000004 324.70599999999996 120.49300000000004 336.608 118.42900000000003 339.306 C 116.36500000000002 342.00399999999996 114.62000000000003 344.067 113.35100000000003 345.019 C 112.08100000000003 345.971 112.08100000000003 346.765 109.06600000000003 347.082 C 106.05100000000003 347.399 102.55900000000003 347.876 101.44800000000004 348.193 C 100.33700000000003 348.51 99.22600000000004 349.621 93.98900000000003 349.46299999999997 C 88.75200000000004 349.304 84.15000000000003 348.51099999999997 84.15000000000003 348.51099999999997 L 68.43900000000004 354.383 L 63.837 331.689 z" stroke-linecap="round" />
</g>
		<g transform="matrix(1 0 0 1 -177.19 96.63)"  >
<polygon style="stroke: rgb(38,50,56); stroke-width: 0.75; stroke-dasharray: none; stroke-linecap: butt; stroke-dashoffset: 0; stroke-linejoin: miter; stroke-miterlimit: 10; fill: rgb(255,255,255); fill-rule: nonzero; opacity: 1;" vector-effect="non-scaling-stroke"  points="1.51,-16.27 8.01,11.98 -2.62,16.27 -8.01,-13.09 " />
</g>
		<g transform="matrix(1 0 0 1 -188.29 104.09)"  >
<polygon style="stroke: rgb(38,50,56); stroke-width: 0.75; stroke-dasharray: none; stroke-linecap: butt; stroke-dashoffset: 0; stroke-linejoin: miter; stroke-miterlimit: 10; fill: rgb(38,50,56); fill-rule: nonzero; opacity: 1;" vector-effect="non-scaling-stroke"  points="-14.2,-18.33 6.58,-23.42 14.19,10.23 -14.07,23.42 -14.2,20.86 " />
</g>
		<g transform="matrix(1 0 0 1 -144.58 76.79)"  >
<path style="stroke: rgb(38,50,56); stroke-width: 0.75; stroke-dasharray: none; stroke-linecap: butt; stroke-dashoffset: 0; stroke-linejoin: miter; stroke-miterlimit: 10; fill: none; fill-rule: nonzero; opacity: 1;" vector-effect="non-scaling-stroke"  transform=" translate(-100.02, -325.1)" d="M 101.607 315.819 C 101.607 315.819 103.035 324.389 103.035 326.452 C 103.035 328.515 98.592 334.07 97.00399999999999 334.387" stroke-linecap="round" />
</g>
		<g transform="matrix(1 0 0 1 -133.29 93.8)"  >
<path style="stroke: rgb(38,50,56); stroke-width: 0.75; stroke-dasharray: none; stroke-linecap: butt; stroke-dashoffset: 0; stroke-linejoin: miter; stroke-miterlimit: 10; fill: rgb(255,255,255); fill-rule: nonzero; opacity: 1;" vector-effect="non-scaling-stroke"  transform=" translate(-111.31, -342.12)" d="M 104.781 337.402 C 104.781 337.402 102.55900000000001 338.19599999999997 103.194 340.09999999999997 C 103.82900000000001 342.00399999999996 108.59 344.70199999999994 110.812 345.972 C 113.03399999999999 347.24199999999996 113.827 347.08299999999997 116.366 345.655 C 118.905 344.227 119.54 341.84599999999995 119.54 341.84599999999995 C 119.54 341.84599999999995 115.57300000000001 341.68699999999995 114.77900000000001 341.36999999999995 C 113.986 341.052 104.781 337.402 104.781 337.402 z" stroke-linecap="round" />
</g>
		<g transform="matrix(1 0 0 1 -131.04 88.5)"  >
<path style="stroke: rgb(38,50,56); stroke-width: 0.75; stroke-dasharray: none; stroke-linecap: butt; stroke-dashoffset: 0; stroke-linejoin: miter; stroke-miterlimit: 10; fill: rgb(255,255,255); fill-rule: nonzero; opacity: 1;" vector-effect="non-scaling-stroke"  transform=" translate(-113.56, -336.81)" d="M 123.032 333.276 C 123.032 333.276 123.032 340.576 121.286 341.211 C 119.54 341.846 117.16 342.322 116.049 342.163 C 114.938 342.004 107.47900000000001 339.46500000000003 106.051 338.51300000000003 C 104.623 337.56100000000004 103.194 335.49800000000005 103.988 333.593 C 104.781 331.689 104.781 331.689 104.781 331.689 C 104.781 331.689 108.114 332.324 112.081 332.324 C 116.048 332.324 122.714 331.05400000000003 123.19 331.53000000000003 C 123.666 332.006 123.032 333.276 123.032 333.276 z" stroke-linecap="round" />
</g>
		<g transform="matrix(1 0 0 1 -128.99 80.92)"  >
<path style="stroke: rgb(38,50,56); stroke-width: 0.75; stroke-dasharray: none; stroke-linecap: butt; stroke-dashoffset: 0; stroke-linejoin: miter; stroke-miterlimit: 10; fill: rgb(255,255,255); fill-rule: nonzero; opacity: 1;" vector-effect="non-scaling-stroke"  transform=" translate(-115.62, -329.23)" d="M 125.412 323.436 C 125.412 323.436 126.364 323.912 126.364 325.34 C 126.364 326.768 128.268 331.053 126.04700000000001 332.48199999999997 C 123.82500000000002 333.90999999999997 116.84300000000002 335.02099999999996 115.41400000000002 335.02099999999996 C 113.98600000000002 335.02099999999996 105.57500000000002 332.006 104.78100000000002 331.68799999999993 C 103.98800000000001 331.3709999999999 103.98800000000001 328.51399999999995 104.30500000000002 327.4029999999999 C 104.62200000000003 326.29199999999986 107.47900000000003 325.9749999999999 107.47900000000003 325.9749999999999 C 107.47900000000003 325.9749999999999 119.699 325.658 125.412 323.436 z" stroke-linecap="round" />
</g>
		<g transform="matrix(1 0 0 1 -127.2 71.63)"  >
<path style="stroke: rgb(38,50,56); stroke-width: 0.75; stroke-dasharray: none; stroke-linecap: butt; stroke-dashoffset: 0; stroke-linejoin: miter; stroke-miterlimit: 10; fill: rgb(255,255,255); fill-rule: nonzero; opacity: 1;" vector-effect="non-scaling-stroke"  transform=" translate(-117.4, -319.94)" d="M 121.286 313.756 C 121.286 313.756 116.208 317.565 115.255 317.88199999999995 C 114.303 318.19899999999996 107.479 320.5799999999999 107.479 320.5799999999999 C 107.479 320.5799999999999 106.527 321.0559999999999 106.527 322.9599999999999 C 106.527 324.8639999999999 107.955 325.9749999999999 109.542 326.29299999999995 C 111.129 326.611 116.842 327.56299999999993 118.905 326.76899999999995 C 120.968 325.97499999999997 125.57000000000001 322.9599999999999 126.999 322.0079999999999 C 128.427 321.0559999999999 128.58599999999998 319.78599999999994 127.792 318.04099999999994 C 126.99800000000002 316.29599999999994 126.046 312.8039999999999 126.046 312.8039999999999" stroke-linecap="round" />
</g>
		<g transform="matrix(1 0 0 1 -142.85 -137.93)"  >
<path style="stroke: rgb(38,50,56); stroke-width: 0.75; stroke-dasharray: none; stroke-linecap: butt; stroke-dashoffset: 0; stroke-linejoin: miter; stroke-miterlimit: 10; fill: rgb(255,255,255); fill-rule: nonzero; opacity: 1;" vector-effect="non-scaling-stroke"  transform=" translate(-101.75, -110.38)" d="M 75.573 99.376 C 75.573 99.376 86.47399999999999 102.686 90.348 102.726 C 94.22200000000001 102.76599999999999 105.735 100.856 110.978 96.801 C 116.22 92.74600000000001 120.87299999999999 87.879 124.12299999999999 84.155 C 127.37299999999999 80.431 129.789 80.599 130.02599999999998 85.45100000000001 C 130.26199999999997 90.30300000000001 127.43499999999999 95.891 124.48099999999998 98.656 C 121.52699999999999 101.421 116.78399999999998 103.68700000000001 116.58099999999997 104.51700000000001 C 116.37799999999997 105.34700000000001 115.84099999999998 106.915 115.84099999999998 106.915 C 115.84099999999998 106.915 124.36099999999998 111.644 129.48799999999997 113.751 C 134.61499999999998 115.858 138.37699999999998 117.964 137.15799999999996 120.214 C 135.93899999999996 122.464 132.72699999999995 125.044 130.89899999999994 127.054 C 129.07099999999994 129.063 118.78999999999995 136.343 115.54199999999994 137.337 C 112.29399999999994 138.331 109.67399999999995 138.993 108.08799999999995 139.029 C 106.50099999999995 139.065 106.03999999999995 139.71 103.40299999999995 138.214 C 100.76599999999995 136.718 97.64999999999995 135.073 96.56099999999995 134.685 C 95.47299999999996 134.297 93.92299999999994 134.554 89.75599999999994 131.37800000000001 C 85.58899999999994 128.20200000000003 82.30799999999994 124.87900000000002 82.30799999999994 124.87900000000002 L 66.11399999999993 120.51300000000002 L 75.573 99.376 z" stroke-linecap="round" />
</g>
		<g transform="matrix(1 0 0 1 -174.28 -136.54)"  >
<polygon style="stroke: rgb(38,50,56); stroke-width: 0.75; stroke-dasharray: none; stroke-linecap: butt; stroke-dashoffset: 0; stroke-linejoin: miter; stroke-miterlimit: 10; fill: rgb(255,255,255); fill-rule: nonzero; opacity: 1;" vector-effect="non-scaling-stroke"  points="11.14,-11.9 0,14.86 -11.14,12.16 1.55,-14.86 " />
</g>
		<g transform="matrix(1 0 0 1 -190.26 -139.76)"  >
<polygon style="stroke: rgb(38,50,56); stroke-width: 0.75; stroke-dasharray: none; stroke-linecap: butt; stroke-dashoffset: 0; stroke-linejoin: miter; stroke-miterlimit: 10; fill: rgb(38,50,56); fill-rule: nonzero; opacity: 1;" vector-effect="non-scaling-stroke"  points="2.17,-19.87 22.02,-11.92 8.64,19.87 -22.02,14.15 -20.64,12 " />
</g>
		<g transform="matrix(1 0 0 1 -136.35 -133.59)"  >
<path style="stroke: rgb(38,50,56); stroke-width: 0.75; stroke-dasharray: none; stroke-linecap: butt; stroke-dashoffset: 0; stroke-linejoin: miter; stroke-miterlimit: 10; fill: none; fill-rule: nonzero; opacity: 1;" vector-effect="non-scaling-stroke"  transform=" translate(-108.25, -114.73)" d="M 115.525 108.446 C 115.525 108.446 111.7 116.247 110.5 117.925 C 109.3 119.603 102.45400000000001 121.535 100.979 120.86999999999999" stroke-linecap="round" />
</g>
		<g transform="matrix(1 0 0 1 -135.82 -113.77)"  >
<path style="stroke: rgb(38,50,56); stroke-width: 0.75; stroke-dasharray: none; stroke-linecap: butt; stroke-dashoffset: 0; stroke-linejoin: miter; stroke-miterlimit: 10; fill: rgb(255,255,255); fill-rule: nonzero; opacity: 1;" vector-effect="non-scaling-stroke"  transform=" translate(-108.78, -134.54)" d="M 105.549 127.846 C 105.549 127.846 103.28 127.199 102.688 129.117 C 102.096 131.035 104.399 136 105.467 138.325 C 106.535 140.64999999999998 107.273 140.98299999999998 110.169 141.29899999999998 C 113.065 141.61499999999998 114.967 140.04799999999997 114.967 140.04799999999997 C 114.967 140.04799999999997 111.833 137.60999999999999 111.372 136.89099999999996 C 110.911 136.171 105.549 127.846 105.549 127.846 z" stroke-linecap="round" />
</g>
		<g transform="matrix(1 0 0 1 -129.84 -116.43)"  >
<path style="stroke: rgb(38,50,56); stroke-width: 0.75; stroke-dasharray: none; stroke-linecap: butt; stroke-dashoffset: 0; stroke-linejoin: miter; stroke-miterlimit: 10; fill: rgb(255,255,255); fill-rule: nonzero; opacity: 1;" vector-effect="non-scaling-stroke"  transform=" translate(-114.76, -131.89)" d="M 122.792 135.109 C 122.792 135.109 118.544 141.04600000000002 116.755 140.547 C 114.966 140.048 112.753 139.04999999999998 111.942 138.274 C 111.13099999999999 137.498 106.54199999999999 131.093 105.93499999999999 129.488 C 105.32699999999998 127.883 105.36599999999999 125.374 107.11999999999999 124.287 C 108.87299999999999 123.2 108.87299999999999 123.2 108.87299999999999 123.2 C 108.87299999999999 123.2 111.21399999999998 125.655 114.44099999999999 127.964 C 117.66799999999999 130.273 123.82699999999998 133.118 123.93699999999998 133.782 C 124.047 134.446 122.792 135.109 122.792 135.109 z" stroke-linecap="round" />
</g>
		<g transform="matrix(1 0 0 1 -124.9 -120.59)"  >
<path style="stroke: rgb(38,50,56); stroke-width: 0.75; stroke-dasharray: none; stroke-linecap: butt; stroke-dashoffset: 0; stroke-linejoin: miter; stroke-miterlimit: 10; fill: rgb(255,255,255); fill-rule: nonzero; opacity: 1;" vector-effect="non-scaling-stroke"  transform=" translate(-119.7, -127.73)" d="M 130.453 128.492 C 130.453 128.492 130.95000000000002 129.433 130.119 130.595 C 129.288 131.757 128.344 136.35 125.706 136.218 C 123.068 136.087 116.74300000000001 132.928 115.581 132.096 C 114.419 131.26500000000001 109.333 123.91900000000001 108.872 123.199 C 108.411 122.479 110.073 120.15599999999999 110.978 119.437 C 111.883 118.718 114.39 120.122 114.39 120.122 C 114.39 120.122 124.514 126.975 130.453 128.492 z" stroke-linecap="round" />
</g>
		<g transform="matrix(1 0 0 1 -118.64 -126.32)"  >
<path style="stroke: rgb(38,50,56); stroke-width: 0.75; stroke-dasharray: none; stroke-linecap: butt; stroke-dashoffset: 0; stroke-linejoin: miter; stroke-miterlimit: 10; fill: rgb(255,255,255); fill-rule: nonzero; opacity: 1;" vector-effect="non-scaling-stroke"  transform=" translate(-125.95, -121.99)" d="M 132.73 118.218 C 132.73 118.218 126.38399999999999 118.361 125.42499999999998 118.065 C 124.46599999999998 117.76899999999999 117.53099999999998 115.735 117.53099999999998 115.735 C 117.53099999999998 115.735 116.47899999999997 115.568 115.37099999999998 117.117 C 114.26299999999998 118.66600000000001 114.77799999999998 120.4 115.88399999999999 121.58200000000001 C 116.98999999999998 122.763 121.082 126.86200000000001 123.22199999999998 127.417 C 125.36199999999998 127.97200000000001 130.85899999999998 128.198 132.575 128.254 C 134.291 128.31099999999998 135.158 127.36999999999999 135.529 125.48899999999999 C 135.899 123.60699999999999 137.156 120.21399999999998 137.156 120.21399999999998" stroke-linecap="round" />
</g>
		<g transform="matrix(1 0 0 1 10.82 101.72)"  >
<path style="stroke: rgb(38,50,56); stroke-width: 0.75; stroke-dasharray: none; stroke-linecap: butt; stroke-dashoffset: 0; stroke-linejoin: miter; stroke-miterlimit: 10; fill: rgb(38,50,56); fill-rule: nonzero; opacity: 1;" vector-effect="non-scaling-stroke"  transform=" translate(-255.41, -350.04)" d="M 221.988 244.346 C 221.988 244.346 214.984 275.007 214.712 289.426 C 214.44 303.84499999999997 215.232 355.817 215.504 366.971 C 215.77599999999998 378.125 220.673 414.307 220.673 417.572 C 220.673 420.837 221.489 427.094 221.489 427.094 L 219.31300000000002 438.792 C 219.31300000000002 438.792 217.40900000000002 440.424 212.51200000000003 443.145 C 207.61500000000004 445.865 201.90200000000004 449.402 200.27000000000004 451.306 L 200.27000000000004 451.306 C 199.42400000000004 452.293 199.80100000000004 453.827 201.01500000000004 454.293 C 202.55300000000005 454.882 204.70600000000005 455.52 207.07100000000005 455.659 C 211.69600000000005 455.931 219.31300000000005 455.931 223.39400000000006 454.843 C 227.47500000000005 453.755 230.73900000000006 450.218 232.64400000000006 448.858 C 234.54800000000006 447.498 234.54800000000006 447.498 234.54800000000006 447.498 L 234.82000000000005 450.491 C 234.82000000000005 450.491 235.09200000000004 450.491 237.54000000000005 449.947 C 239.98900000000006 449.403 243.25300000000004 447.498 243.25300000000004 447.498 C 243.25300000000004 447.498 243.52500000000003 442.873 243.52500000000003 440.15299999999996 C 243.52500000000003 437.43199999999996 242.16500000000002 432.53599999999994 241.89300000000003 431.44699999999995 C 241.62100000000004 430.3589999999999 241.89300000000003 420.56499999999994 241.07700000000003 417.29999999999995 C 240.26100000000002 414.03599999999994 239.717 414.852 239.17300000000003 408.86599999999993 C 238.62900000000002 402.8809999999999 243.52600000000004 346.29499999999996 243.25400000000002 344.6629999999999 C 242.98200000000003 343.0309999999999 250.18300000000002 293.9769999999999 250.18300000000002 293.9769999999999 C 250.18300000000002 293.9769999999999 263.93 357.99299999999994 268.28200000000004 370.23599999999993 C 272.63500000000005 382.47799999999995 274.81100000000004 406.14599999999996 274.81100000000004 407.77899999999994 C 274.81100000000004 409.41099999999994 277.259 428.7269999999999 278.348 431.44699999999995 C 279.43600000000004 434.167 282.42900000000003 442.60099999999994 282.42900000000003 442.60099999999994 C 282.42900000000003 442.60099999999994 286.78200000000004 449.12999999999994 288.68600000000004 452.3949999999999 C 290.59000000000003 455.6599999999999 297.12000000000006 458.37999999999994 302.016 459.1959999999999 C 306.913 460.0119999999999 310.72200000000004 460.28399999999993 310.994 453.75499999999994 C 311.266 447.22599999999994 308.81800000000004 442.87299999999993 304.737 439.8809999999999 C 300.656 436.8879999999999 299.84000000000003 434.1679999999999 299.84000000000003 434.1679999999999 C 299.84000000000003 434.1679999999999 300.384 426.82299999999987 299.84000000000003 422.19799999999987 C 299.29600000000005 417.57299999999987 296.30300000000005 414.03699999999986 296.031 404.5149999999999 C 295.759 394.9929999999999 293.855 344.93599999999986 292.222 337.04699999999985 C 290.59 329.15799999999984 288.438 276.36899999999986 288.71 269.0239999999999 C 288.98199999999997 261.67899999999986 288.02599999999995 241.21399999999988 288.02599999999995 241.21399999999988 L 221.78599999999994 240.4589999999999 L 221.988 244.346 z" stroke-linecap="round" />
</g>
		<g transform="matrix(1 0 0 1 23.69 -60.37)"  >
<path style="stroke: rgb(38,50,56); stroke-width: 0.75; stroke-dasharray: none; stroke-linecap: butt; stroke-dashoffset: 0; stroke-linejoin: miter; stroke-miterlimit: 10; fill: rgb(146,227,169); fill-rule: nonzero; opacity: 1;" vector-effect="non-scaling-stroke"  transform=" translate(-268.3, -187.94)" d="M 247.987 134.738 C 247.987 134.738 237.882 140.702 230.718 144.283 C 223.55499999999998 147.86499999999998 214.82399999999998 149.879 213.92899999999997 151.89399999999998 C 213.03399999999996 153.90899999999996 197.58799999999997 186.81499999999997 194.67699999999996 191.29199999999997 C 191.76699999999997 195.76899999999998 184.82799999999997 204.49899999999997 186.17099999999996 209.42399999999998 C 187.51399999999995 214.349 193.10999999999996 221.06399999999996 196.69199999999995 220.617 C 200.27399999999994 220.16899999999998 207.43699999999995 218.155 210.34699999999995 213.006 C 213.25699999999995 207.857 220.19699999999995 191.292 220.19699999999995 191.292 C 220.19699999999995 191.292 221.31599999999995 206.738 221.09199999999996 214.349 C 220.86799999999997 221.95999999999998 220.86799999999997 228.22799999999998 220.41999999999996 232.033 C 219.97199999999995 235.838 217.95799999999997 240.54 218.85299999999995 241.88299999999998 C 219.74799999999996 243.22599999999997 220.86799999999994 244.569 221.98699999999994 244.34499999999997 C 223.10599999999994 244.12099999999998 239.89499999999992 243.89699999999996 245.04399999999993 244.12099999999998 C 250.19299999999993 244.34499999999997 273.4729999999999 244.12099999999998 278.3979999999999 244.34499999999997 C 283.3229999999999 244.56899999999996 287.5759999999999 242.10599999999997 288.0239999999999 241.21099999999998 C 288.47199999999987 240.316 289.3669999999999 238.97299999999998 288.91899999999987 234.04799999999997 C 288.4709999999999 229.12299999999996 289.36699999999985 214.12499999999997 290.70999999999987 208.30499999999998 C 292.0529999999999 202.48499999999999 300.11199999999985 180.099 300.11199999999985 180.099 C 300.11199999999985 180.099 321.3779999999999 196.88799999999998 325.85499999999985 198.231 C 330.3319999999998 199.57399999999998 342.41999999999985 197.559 346.4499999999998 192.635 C 350.4789999999998 187.70999999999998 351.82199999999983 183.905 349.35999999999984 180.547 C 346.89799999999985 177.189 337.94299999999987 174.055 328.54199999999986 163.982 C 319.1399999999999 153.909 315.5579999999999 149.208 309.06699999999984 146.074 C 302.5749999999998 142.94000000000003 289.3679999999998 138.687 286.2339999999998 137.34400000000002 C 283.0999999999998 136.00100000000003 282.2049999999998 135.32900000000004 280.1899999999998 134.43400000000003 C 278.17499999999984 133.53900000000002 273.4739999999998 131.74800000000002 264.7439999999998 131.52400000000003 C 256.013 131.299 247.987 134.738 247.987 134.738 z" stroke-linecap="round" />
</g>
		<g transform="matrix(1 0 0 1 -27.5 -64.95)"  >
<path style="stroke: rgb(38,50,56); stroke-width: 0.75; stroke-dasharray: none; stroke-linecap: butt; stroke-dashoffset: 0; stroke-linejoin: miter; stroke-miterlimit: 10; fill: none; fill-rule: nonzero; opacity: 1;" vector-effect="non-scaling-stroke"  transform=" translate(-217.09, -183.36)" d="M 215.69 175.434 C 215.999 176.514 220.197 191.292 220.197 191.292 L 213.993 178.983" stroke-linecap="round" />
</g>
		<g transform="matrix(1 0 0 1 50.64 -70.7)"  >
<path style="stroke: rgb(38,50,56); stroke-width: 0.75; stroke-dasharray: none; stroke-linecap: butt; stroke-dashoffset: 0; stroke-linejoin: miter; stroke-miterlimit: 10; fill: none; fill-rule: nonzero; opacity: 1;" vector-effect="non-scaling-stroke"  transform=" translate(-295.25, -177.61)" d="M 300.113 180.1 C 299.175 180.064 290.379 175.126 290.379 175.126" stroke-linecap="round" />
</g>
		<g transform="matrix(1 0 0 1 44.62 -71.03)"  >
<path style="stroke: rgb(38,50,56); stroke-width: 0.75; stroke-dasharray: none; stroke-linecap: butt; stroke-dashoffset: 0; stroke-linejoin: miter; stroke-miterlimit: 10; fill: none; fill-rule: nonzero; opacity: 1;" vector-effect="non-scaling-stroke"  transform=" translate(-289.22, -177.29)" d="M 285.904 174.508 C 285.904 174.508 289.453 179.137 292.54 180.06300000000002" stroke-linecap="round" />
</g>
		<g transform="matrix(1 0 0 1 9.16 -56.05)"  >
<path style="stroke: rgb(38,50,56); stroke-width: 0.75; stroke-dasharray: none; stroke-linecap: butt; stroke-dashoffset: 0; stroke-linejoin: miter; stroke-miterlimit: 10; fill: rgb(38,50,56); fill-rule: nonzero; opacity: 1;" vector-effect="non-scaling-stroke"  transform=" translate(-253.77, -192.27)" d="M 246.738 148.472 L 249.547 159.085 C 249.547 159.085 240.651 203.566 239.246 211.05700000000002 C 237.841 218.549 237.529 224.79100000000003 237.529 224.79100000000003 L 245.333 240.24200000000002 L 255.166 223.54200000000003 C 255.166 223.54200000000003 254.23 202.47200000000004 253.917 185.61600000000004 C 253.605 168.76000000000005 254.229 160.64400000000003 254.073 160.17600000000004 C 253.917 159.70800000000006 263.906 152.37200000000004 263.906 152.37200000000004 C 263.906 152.37200000000004 269.681 145.97300000000004 269.993 144.88000000000005 C 270.305 143.78700000000006 265.935 145.19200000000006 264.999 146.12900000000005 C 264.06300000000005 147.06600000000006 261.25300000000004 148.78200000000004 257.19500000000005 148.00200000000004 C 253.13700000000006 147.22200000000004 247.83100000000005 142.69600000000003 247.05000000000004 144.88100000000003 C 246.27 147.067 246.738 148.472 246.738 148.472 z" stroke-linecap="round" />
</g>
		<g transform="matrix(1 0 0 1 16.02 -106.16)"  >
<path style="stroke: rgb(38,50,56); stroke-width: 0.75; stroke-dasharray: none; stroke-linecap: butt; stroke-dashoffset: 0; stroke-linejoin: miter; stroke-miterlimit: 10; fill: rgb(146,227,169); fill-rule: nonzero; opacity: 1;" vector-effect="non-scaling-stroke"  transform=" translate(-260.62, -142.15)" d="M 253.449 130.367 C 252.98100000000002 130.679 249.235 131.61599999999999 247.98600000000002 134.737 C 246.73700000000002 137.858 240.33800000000002 152.21699999999998 238.466 154.558 C 236.59300000000002 156.899 239.559 155.963 242.056 154.402 C 244.553 152.84099999999998 246.738 146.754 248.143 149.408 C 249.548 152.06099999999998 253.606 153.154 253.606 153.154 C 253.606 153.154 262.034 151.593 263.907 150.345 C 265.78 149.097 267.49699999999996 147.38 267.49699999999996 147.38 C 267.49699999999996 147.38 274.67599999999993 158.149 276.705 159.08599999999998 C 278.734 160.022 279.046 158.462 279.202 156.74499999999998 C 279.358 155.02799999999996 280.763 144.88299999999998 282.792 138.17199999999997 C 284.82099999999997 131.46099999999996 280.919 129.27599999999995 278.42199999999997 126.46699999999997 C 275.92499999999995 123.65799999999997 273.11499999999995 125.53099999999996 270.306 125.84299999999998 C 267.496 126.154 253.449 130.367 253.449 130.367 z" stroke-linecap="round" />
</g>
		<g transform="matrix(1 0 0 1 20.05 -142.12)"  >
<path style="stroke: rgb(38,50,56); stroke-width: 0.75; stroke-dasharray: none; stroke-linecap: butt; stroke-dashoffset: 0; stroke-linejoin: miter; stroke-miterlimit: 10; fill: rgb(255,255,255); fill-rule: nonzero; opacity: 1;" vector-effect="non-scaling-stroke"  transform=" translate(-264.65, -106.2)" d="M 249.17 82.312 C 249.17 82.312 244.29399999999998 89.716 245.19699999999997 91.52199999999999 C 246.09999999999997 93.32799999999999 246.09999999999997 95.67599999999999 245.19699999999997 96.94 C 244.29399999999998 98.204 243.21099999999998 99.83 243.57199999999997 102.89999999999999 C 243.93299999999996 105.96999999999998 242.12699999999998 121.50099999999999 244.83599999999998 123.30699999999999 C 247.545 125.11299999999999 250.43499999999997 126.01599999999999 250.43499999999997 126.01599999999999 C 250.43499999999997 126.01599999999999 253.50499999999997 152.022 254.58899999999997 151.29899999999998 C 255.67299999999997 150.57699999999997 271.20399999999995 134.68399999999997 273.01 131.253 C 274.816 127.82199999999999 276.983 122.945 276.983 122.945 C 276.983 122.945 283.123 111.20599999999999 286.735 106.33 C 290.34700000000004 101.454 294.50100000000003 92.42399999999999 293.236 87.728 C 291.972 83.032 285.46999999999997 79.601 282.4 77.073 C 279.33 74.54499999999999 281.316 68.76599999999999 276.98199999999997 65.87599999999999 C 272.64799999999997 62.98699999999999 267.40999999999997 62.26399999999999 263.979 63.52799999999999 C 260.548 64.79199999999999 260.36699999999996 67.50099999999999 256.21299999999997 64.79199999999999 C 252.05899999999997 62.082999999999984 248.08599999999996 59.37399999999999 241.76499999999996 62.44399999999999 C 235.44399999999996 65.51399999999998 234.17999999999995 76.35 237.97199999999995 79.23999999999998 C 241.765 82.132 249.17 82.312 249.17 82.312 z" stroke-linecap="round" />
</g>
		<g transform="matrix(1 0 0 1 20.05 -159.39)"  >
<path style="stroke: rgb(38,50,56); stroke-width: 0.75; stroke-dasharray: none; stroke-linecap: butt; stroke-dashoffset: 0; stroke-linejoin: miter; stroke-miterlimit: 10; fill: rgb(38,50,56); fill-rule: nonzero; opacity: 1;" vector-effect="non-scaling-stroke"  transform=" translate(-264.65, -88.92)" d="M 282.399 77.075 C 279.329 74.547 281.315 68.768 276.981 65.878 C 272.647 62.988 267.409 62.266 263.978 63.53 C 260.547 64.794 260.366 67.503 256.212 64.794 C 252.058 62.084999999999994 248.08499999999998 59.376 241.76399999999998 62.446 C 235.44299999999998 65.51599999999999 234.17899999999997 76.352 237.97099999999998 79.24199999999999 C 241.76399999999998 82.13099999999999 249.16799999999998 82.31199999999998 249.16799999999998 82.31199999999998 C 249.16799999999998 82.31199999999998 254.58599999999998 79.78399999999998 258.198 77.79699999999998 C 261.81 75.80999999999999 269.93699999999995 79.06099999999998 271.382 80.32499999999999 C 272.827 81.58899999999998 270.66 80.68599999999999 270.299 83.03399999999999 C 269.938 85.38199999999999 274.453 89.17399999999999 276.43899999999996 90.97999999999999 C 278.42499999999995 92.78599999999999 276.078 94.04999999999998 275.53599999999994 96.398 C 274.99399999999997 98.746 277.16099999999994 99.649 278.42499999999995 98.746 C 279.68899999999996 97.84299999999999 283.662 92.786 285.10699999999997 95.676 C 286.55199999999996 98.566 288.719 102.9 284.746 105.97 C 280.77299999999997 109.03999999999999 277.883 108.318 277.883 108.318 C 277.883 108.318 276.58799999999997 116.14 280.341 116.755 C 282.356 113.14999999999999 284.877 108.83699999999999 286.732 106.332 C 290.34400000000005 101.45599999999999 294.49800000000005 92.42599999999999 293.233 87.72999999999999 C 291.971 83.035 285.469 79.603 282.399 77.075 z" stroke-linecap="round" />
</g>
		<g transform="matrix(1 0 0 1 16.13 -156.71)"  >
<path style="stroke: rgb(38,50,56); stroke-width: 0.5; stroke-dasharray: none; stroke-linecap: butt; stroke-dashoffset: 0; stroke-linejoin: miter; stroke-miterlimit: 10; fill: none; fill-rule: nonzero; opacity: 1;" vector-effect="non-scaling-stroke"  transform=" translate(-260.73, -91.6)" d="M 258.922 91.884 C 258.922 91.884 260.728 91.162 262.53400000000005 91.342" stroke-linecap="round" />
</g>
		<g transform="matrix(1 0 0 1 3.79 -154.2)"  >
<path style="stroke: rgb(38,50,56); stroke-width: 0.5; stroke-dasharray: none; stroke-linecap: butt; stroke-dashoffset: 0; stroke-linejoin: miter; stroke-miterlimit: 10; fill: none; fill-rule: nonzero; opacity: 1;" vector-effect="non-scaling-stroke"  transform=" translate(-248.4, -94.12)" d="M 249.677 93.657 C 249.677 93.657 248.101 93.985 247.11499999999998 94.577" stroke-linecap="round" />
</g>
		<g transform="matrix(1 0 0 1 2.7 -151.34)"  >
<path style="stroke: rgb(38,50,56); stroke-width: 0.75; stroke-dasharray: none; stroke-linecap: butt; stroke-dashoffset: 0; stroke-linejoin: miter; stroke-miterlimit: 10; fill: none; fill-rule: nonzero; opacity: 1;" vector-effect="non-scaling-stroke"  transform=" translate(-247.3, -96.97)" d="M 249.743 88.731 C 249.743 88.731 250.85999999999999 90.767 250.268 92.738 C 249.677 94.708 244.094 99.109 244.159 99.963 C 244.225 100.817 247.44299999999998 102.58999999999999 247.37699999999998 103.31299999999999 C 247.31099999999998 104.03499999999998 247.11399999999998 105.21799999999999 247.11399999999998 105.21799999999999" stroke-linecap="round" />
</g>
		<g transform="matrix(1 0 0 1 17.36 -155.38)"  >
<ellipse style="stroke: rgb(38,50,56); stroke-width: 0.5; stroke-dasharray: none; stroke-linecap: butt; stroke-dashoffset: 0; stroke-linejoin: miter; stroke-miterlimit: 10; fill: rgb(38,50,56); fill-rule: nonzero; opacity: 1;" vector-effect="non-scaling-stroke"  cx="0" cy="0" rx="1.182" ry="1.445" />
</g>
		<g transform="matrix(1 0 0 1 17.55 -153.58)"  >
<path style="stroke: rgb(38,50,56); stroke-width: 0.75; stroke-dasharray: none; stroke-linecap: butt; stroke-dashoffset: 0; stroke-linejoin: miter; stroke-miterlimit: 10; fill: none; fill-rule: nonzero; opacity: 1;" vector-effect="non-scaling-stroke"  transform=" translate(-262.16, -94.74)" d="M 259.661 95.299 C 259.858 95.233 262.748 94.051 264.653 94.182" stroke-linecap="round" />
</g>
		<g transform="matrix(1 0 0 1 16.21 -162.82)"  >
<path style="stroke: rgb(38,50,56); stroke-width: 0.5; stroke-dasharray: none; stroke-linecap: butt; stroke-dashoffset: 0; stroke-linejoin: miter; stroke-miterlimit: 10; fill: rgb(38,50,56); fill-rule: nonzero; opacity: 1;" vector-effect="non-scaling-stroke"  transform=" translate(-260.81, -85.49)" d="M 255.488 86.6 C 255.488 86.6 259.362 83.006 262.363 83.73299999999999 C 265.364 84.46 266.502 87.344 266.024 87.353 C 265.546 87.362 264.032 85.12599999999999 262.377 84.96 C 260.72200000000004 84.79299999999999 259.564 85.574 258.152 86.28699999999999 C 256.741 87 255.857 87.513 255.488 86.6 z" stroke-linecap="round" />
</g>
		<g transform="matrix(1 0 0 1 2.93 -158.53)"  >
<path style="stroke: rgb(38,50,56); stroke-width: 0.5; stroke-dasharray: none; stroke-linecap: butt; stroke-dashoffset: 0; stroke-linejoin: miter; stroke-miterlimit: 10; fill: rgb(38,50,56); fill-rule: nonzero; opacity: 1;" vector-effect="non-scaling-stroke"  transform=" translate(-247.54, -89.78)" d="M 250.006 89.453 C 250.006 89.159 249.546 87.811 247.773 88.074 C 246 88.337 244.65699999999998 91.556 245.197 91.523 C 245.737 91.49 246.328 89.454 247.707 89.25699999999999 C 249.086 89.059 250.006 91.227 250.006 89.453 z" stroke-linecap="round" />
</g>
		<g transform="matrix(1 0 0 1 10.84 -143.32)"  >
<path style="stroke: rgb(38,50,56); stroke-width: 0.75; stroke-dasharray: none; stroke-linecap: butt; stroke-dashoffset: 0; stroke-linejoin: miter; stroke-miterlimit: 10; fill: none; fill-rule: nonzero; opacity: 1;" vector-effect="non-scaling-stroke"  transform=" translate(-255.43, -104.99)" d="M 246.984 109.29 C 246.984 109.29 249.80800000000002 108.962 253.48700000000002 108.50200000000001 C 257.165 108.04200000000002 262.35400000000004 107.32000000000001 263.208 104.69200000000001 C 264.062 102.06500000000001 263.865 100.685 263.865 100.685" stroke-linecap="round" />
</g>
		<g transform="matrix(1 0 0 1 18.9 -147.75)"  >
<path style="stroke: rgb(38,50,56); stroke-width: 0.75; stroke-dasharray: none; stroke-linecap: butt; stroke-dashoffset: 0; stroke-linejoin: miter; stroke-miterlimit: 10; fill: none; fill-rule: nonzero; opacity: 1;" vector-effect="non-scaling-stroke"  transform=" translate(-263.5, -100.57)" d="M 261.894 100.488 C 262.157 100.422 264.259 100.422 265.113 100.685" stroke-linecap="round" />
</g>
		<g transform="matrix(1 0 0 1 17.17 -124.29)"  >
<path style="stroke: rgb(38,50,56); stroke-width: 0.5; stroke-dasharray: none; stroke-linecap: butt; stroke-dashoffset: 0; stroke-linejoin: miter; stroke-miterlimit: 10; fill: rgb(38,50,56); fill-rule: nonzero; opacity: 1;" vector-effect="non-scaling-stroke"  transform=" translate(-261.77, -124.02)" d="M 277.055 113.468 C 277.055 113.468 276.358 117.35000000000001 273.074 119.44 C 269.789 121.53 245.70100000000002 123.919 246.49800000000002 124.218 C 247.294 124.51700000000001 250.43500000000003 126.01700000000001 250.43500000000003 126.01700000000001 L 251.37500000000003 134.57000000000002 C 251.37500000000003 134.57000000000002 255.95400000000004 130.19000000000003 263.91700000000003 126.10900000000002 C 271.879 122.028 276.856 120.634 277.055 113.468 z" stroke-linecap="round" />
</g>
		<g transform="matrix(1 0 0 1 38.77 -11.45)"  >
<path style="stroke: rgb(38,50,56); stroke-width: 0.75; stroke-dasharray: none; stroke-linecap: butt; stroke-dashoffset: 0; stroke-linejoin: miter; stroke-miterlimit: 10; fill: rgb(255,255,255); fill-rule: nonzero; opacity: 1;" vector-effect="non-scaling-stroke"  transform=" translate(-283.38, -236.86)" d="M 290.487 230.243 C 290.487 230.243 286.01000000000005 230.019 284.891 229.795 C 283.772 229.571 280.19 226.213 278.62300000000005 226.43699999999998 C 277.05600000000004 226.66099999999997 274.1460000000001 229.795 273.02700000000004 232.481 C 271.908 235.167 271.46000000000004 236.51 271.46000000000004 236.51 C 271.46000000000004 236.51 267.43100000000004 240.09199999999998 269.44500000000005 242.554 C 271.46000000000004 245.016 273.69800000000004 244.121 273.69800000000004 244.121 C 273.69800000000004 244.121 275.04100000000005 246.36 276.83200000000005 246.583 C 278.62300000000005 246.807 280.86100000000005 246.807 280.86100000000005 246.807 C 280.86100000000005 246.807 283.09900000000005 247.47899999999998 284.44300000000004 247.255 C 285.78600000000006 247.031 287.129 246.136 287.129 246.136 C 287.129 246.136 288.696 246.35999999999999 289.815 245.465 C 290.639 244.806 294.613 240.754 296.656 238.659 C 297.39 237.90699999999998 297.874 237.406 297.874 237.406 L 290.487 230.243 z" stroke-linecap="round" />
</g>
		<g transform="matrix(1 0 0 1 78.07 -40.23)"  >
<path style="stroke: rgb(38,50,56); stroke-width: 0.75; stroke-dasharray: none; stroke-linecap: butt; stroke-dashoffset: 0; stroke-linejoin: miter; stroke-miterlimit: 10; fill: rgb(146,227,169); fill-rule: nonzero; opacity: 1;" vector-effect="non-scaling-stroke"  transform=" translate(-322.67, -208.08)" d="M 327.871 184.129 C 327.871 184.129 319.58799999999997 193.307 316.902 197.784 C 314.216 202.261 305.933 213.902 302.799 217.483 C 299.66499999999996 221.065 288.69599999999997 229.79500000000002 288.69599999999997 229.79500000000002 C 288.69599999999997 229.79500000000002 292.054 236.95800000000003 294.51599999999996 238.078 C 296.97799999999995 239.197 298.99299999999994 239.645 298.99299999999994 239.645 L 307.94699999999995 232.929 C 307.94699999999995 232.929 324.9599999999999 219.945 333.91399999999993 212.558 C 342.86799999999994 205.171 355.40399999999994 195.321 356.2989999999999 191.06799999999998 C 357.1939999999999 186.815 356.5229999999999 184.576 352.04599999999994 181.218 C 347.56899999999996 177.85999999999999 342.86799999999994 176.517 342.86799999999994 176.517" stroke-linecap="round" />
</g>
		<g transform="matrix(1 0 0 1 55.51 -19.19)"  >
<path style="stroke: rgb(38,50,56); stroke-width: 0.75; stroke-dasharray: none; stroke-linecap: butt; stroke-dashoffset: 0; stroke-linejoin: miter; stroke-miterlimit: 10; fill: none; fill-rule: nonzero; opacity: 1;" vector-effect="non-scaling-stroke"  transform=" translate(-300.11, -229.12)" d="M 295.636 224.199 C 295.636 224.199 297.651 234.049 304.59000000000003 234.049" stroke-linecap="round" />
</g>
		<g transform="matrix(1 0 0 1 -36.34 -62)"  >
<path style="stroke: rgb(38,50,56); stroke-width: 0.75; stroke-dasharray: none; stroke-linecap: butt; stroke-dashoffset: 0; stroke-linejoin: miter; stroke-miterlimit: 10; fill: rgb(255,255,255); fill-rule: nonzero; opacity: 1;" vector-effect="non-scaling-stroke"  transform=" translate(-208.25, -186.31)" d="M 198.098 151.669 C 198.098 151.669 199.024 159.53900000000002 199.48700000000002 163.08800000000002 C 199.95000000000002 166.63700000000003 201.03000000000003 168.18000000000004 201.03000000000003 168.18000000000004 C 201.03000000000003 168.18000000000004 193.77700000000004 184.38300000000004 193.46900000000002 184.84600000000003 C 193.16000000000003 185.30900000000003 185.59900000000002 199.50600000000003 184.36400000000003 201.20300000000003 C 183.13000000000002 202.90000000000003 180.19700000000003 208.30100000000004 182.04900000000004 211.69600000000003 C 183.90100000000004 215.09100000000004 186.83300000000003 222.03500000000003 190.69100000000003 222.18900000000002 C 194.54900000000004 222.34300000000002 199.95000000000005 220.02800000000002 203.65300000000002 217.86800000000002 C 207.356 215.70800000000003 208.591 214.31900000000002 208.90000000000003 208.14600000000002 C 209.20900000000003 201.973 209.05400000000003 190.863 210.13500000000005 184.99900000000002 C 211.21500000000006 179.13500000000002 211.98700000000005 172.96200000000002 212.75800000000004 170.64800000000002 C 213.53000000000003 168.33300000000003 218.00500000000005 169.10500000000002 219.54800000000003 168.17900000000003 C 221.09100000000004 167.25300000000004 222.48000000000002 165.24700000000004 225.25800000000004 164.01200000000003 C 228.03600000000003 162.77800000000002 231.89300000000003 163.08600000000004 232.81900000000005 163.39500000000004 C 233.74500000000003 163.70400000000004 235.44200000000004 162.31500000000003 234.97900000000004 160.61700000000005 C 234.51600000000005 158.91900000000004 231.43000000000004 157.99400000000006 228.34400000000005 158.30200000000005 C 225.25800000000004 158.61100000000005 222.48000000000005 159.53700000000006 221.70800000000006 159.07300000000004 C 220.93600000000006 158.61000000000004 220.16500000000005 150.43100000000004 220.16500000000005 150.43100000000004 C 220.16500000000005 150.43100000000004 209.20900000000006 151.35700000000003 205.35100000000006 151.51100000000005 C 201.493 151.669 198.098 151.669 198.098 151.669 z" stroke-linecap="round" />
</g>
		<g transform="matrix(1 0 0 1 -26.45 -96.77)"  >
<path style="stroke: rgb(38,50,56); stroke-width: 0.75; stroke-dasharray: none; stroke-linecap: butt; stroke-dashoffset: 0; stroke-linejoin: miter; stroke-miterlimit: 10; fill: rgb(255,255,255); fill-rule: nonzero; opacity: 1;" vector-effect="non-scaling-stroke"  transform=" translate(-218.15, -151.54)" d="M 215.073 145.651 C 215.073 145.651 215.227 155.836 215.227 156.762 C 215.227 157.688 216.153 158.46 216.924 158.305 C 217.696 158.151 219.702 158.922 220.16500000000002 156.608 C 220.62800000000001 154.293 221.55400000000003 147.812 221.091 146.269 C 220.628 144.725 216.462 144.108 215.073 145.651 z" stroke-linecap="round" />
</g>
		<g transform="matrix(1 0 0 1 -32.84 -96.33)"  >
<path style="stroke: rgb(38,50,56); stroke-width: 0.75; stroke-dasharray: none; stroke-linecap: butt; stroke-dashoffset: 0; stroke-linejoin: miter; stroke-miterlimit: 10; fill: rgb(255,255,255); fill-rule: nonzero; opacity: 1;" vector-effect="non-scaling-stroke"  transform=" translate(-211.76, -151.98)" d="M 215.073 145.651 C 215.073 145.651 210.13500000000002 144.417 208.746 145.18800000000002 C 207.357 145.959 209.518 156.91600000000003 209.672 157.842 C 209.826 158.768 211.987 159.23100000000002 212.913 158.92200000000003 C 213.839 158.61300000000003 215.228 157.99600000000004 215.228 156.76200000000003 C 215.228 155.52800000000002 215.073 145.651 215.073 145.651 z" stroke-linecap="round" />
</g>
		<g transform="matrix(1 0 0 1 -38.5 -95.67)"  >
<path style="stroke: rgb(38,50,56); stroke-width: 0.75; stroke-dasharray: none; stroke-linecap: butt; stroke-dashoffset: 0; stroke-linejoin: miter; stroke-miterlimit: 10; fill: rgb(255,255,255); fill-rule: nonzero; opacity: 1;" vector-effect="non-scaling-stroke"  transform=" translate(-206.11, -152.64)" d="M 207.666 145.497 C 207.666 145.497 204.42499999999998 144.88000000000002 203.499 145.96 C 202.573 147.04 202.265 148.583 202.573 151.36100000000002 C 202.882 154.139 204.425 158.305 205.042 159.23100000000002 C 205.659 160.157 207.665 160.31100000000004 208.9 159.848 C 210.13500000000002 159.38500000000002 209.672 157.842 209.672 157.842 C 209.672 157.842 209.055 157.22500000000002 208.9 152.441 C 208.745 147.65699999999998 208.746 145.188 208.746 145.188 L 207.666 145.497 z" stroke-linecap="round" />
</g>
		<g transform="matrix(1 0 0 1 -43.8 -95.01)"  >
<path style="stroke: rgb(38,50,56); stroke-width: 0.75; stroke-dasharray: none; stroke-linecap: butt; stroke-dashoffset: 0; stroke-linejoin: miter; stroke-miterlimit: 10; fill: rgb(255,255,255); fill-rule: nonzero; opacity: 1;" vector-effect="non-scaling-stroke"  transform=" translate(-200.8, -153.3)" d="M 202.265 147.348 C 201.648 147.502 197.79 147.657 197.635 149.20000000000002 C 197.481 150.74300000000002 198.869 157.996 199.487 158.76800000000003 C 200.10399999999998 159.54000000000002 201.802 159.23100000000002 202.41899999999998 158.92200000000003 C 203.03599999999997 158.61300000000003 204.11599999999999 158.15000000000003 203.962 157.22500000000002 C 203.808 156.299 202.265 147.348 202.265 147.348 z" stroke-linecap="round" />
</g>
		<g transform="matrix(1 0 0 1 -48.11 -50.27)"  >
<path style="stroke: rgb(38,50,56); stroke-width: 0.75; stroke-dasharray: none; stroke-linecap: butt; stroke-dashoffset: 0; stroke-linejoin: miter; stroke-miterlimit: 10; fill: rgb(146,227,169); fill-rule: nonzero; opacity: 1;" vector-effect="non-scaling-stroke"  transform=" translate(-196.49, -198.04)" d="M 203.499 177.903 C 200.76399999999998 177.62 199.243 175.495 198.471 173.88299999999998 C 196.35 178.599 193.654 184.569 193.46800000000002 184.84699999999998 C 193.15900000000002 185.30999999999997 185.598 199.50699999999998 184.36300000000003 201.20399999999998 C 183.12900000000002 202.90099999999998 180.19600000000003 208.302 182.04800000000003 211.69699999999997 C 183.90000000000003 215.09199999999998 186.83200000000002 222.03599999999997 190.69000000000003 222.18999999999997 C 194.54800000000003 222.34399999999997 199.949 220.02999999999997 203.65200000000002 217.86899999999997 C 207.35500000000002 215.70799999999997 208.59 214.31999999999996 208.899 208.14699999999996 C 209.208 201.97399999999996 209.053 190.86399999999998 210.133 184.99999999999997 C 210.663 182.12299999999996 211.11800000000002 179.17499999999998 211.536 176.64199999999997 C 209.151 177.388 205.956 178.157 203.499 177.903 z" stroke-linecap="round" />
</g>
		<g transform="matrix(1 0 0 1 -35.5 -83.37)"  >
<path style="stroke: rgb(38,50,56); stroke-width: 0.75; stroke-dasharray: none; stroke-linecap: butt; stroke-dashoffset: 0; stroke-linejoin: miter; stroke-miterlimit: 10; fill: rgb(255,255,255); fill-rule: nonzero; opacity: 1;" vector-effect="non-scaling-stroke"  transform=" translate(-209.1, -164.94)" d="M 210.598 160.928 C 210.598 160.928 207.97500000000002 163.243 207.66600000000003 165.249 C 207.35700000000003 167.255 208.43800000000002 168.953 208.43800000000002 168.953" stroke-linecap="round" />
</g>
</g>
</g>
<g transform="matrix(NaN NaN NaN NaN 0 0)"  >
<g style=""   >
</g>
</g>
</svg>