<svg id="canvas" height="auto" xmlns="http://www.w3.org/2000/svg" version="1.1" xmlns:xlink="http://www.w3.org/1999/xlink" viewBox="0 0 452 418" width="auto" style="width: auto; height: auto;"><defs><linearGradient gradientTransform="matrix(6.123233995736766e-17,1,-1,6.123233995736766e-17,0,0)" id="SvgjsLinearGradient1075"><stop stop-color="#00000000" offset="0" style="--darkreader-inline-stopcolor: var(--darkreader-background-00000000, rgba(0, 0, 0, 0));" data-darkreader-inline-stopcolor=""/><stop stop-color="#00000000" offset="1" style="--darkreader-inline-stopcolor: var(--darkreader-background-00000000, rgba(0, 0, 0, 0));" data-darkreader-inline-stopcolor=""/></linearGradient><linearGradient gradientTransform="matrix(-0.25881904510252085,0.9659258262890683,-0.9659258262890683,-0.25881904510252085,0,0)" id="SvgjsLinearGradient1076"><stop stop-color="#52039ecc" offset="0" style="--darkreader-inline-stopcolor: var(--darkreader-background-52039ecc, rgba(66, 2, 126, 0.8));" data-darkreader-inline-stopcolor=""/><stop stop-color="#1e013acc" offset="1" style="--darkreader-inline-stopcolor: var(--darkreader-background-1e013acc, rgba(24, 1, 46, 0.8));" data-darkreader-inline-stopcolor=""/></linearGradient><linearGradient gradientTransform="matrix(-0.25881904510252085,0.9659258262890683,-0.9659258262890683,-0.25881904510252085,0,0)" id="SvgjsLinearGradient1077"><stop stop-color="#000000cc" offset="0" style="--darkreader-inline-stopcolor: var(--darkreader-background-000000cc, rgba(0, 0, 0, 0.8));" data-darkreader-inline-stopcolor=""/><stop stop-color="#1e013acc" offset="1" style="--darkreader-inline-stopcolor: var(--darkreader-background-1e013acc, rgba(24, 1, 46, 0.8));" data-darkreader-inline-stopcolor=""/></linearGradient></defs><rect width="452" height="418" fill="url(#SvgjsLinearGradient1075)"/><g transform="matrix(0.2128686741292366,0,0,0.2128686741292366,-234.5651351094875,255.53024153283422)"><path d="M291 448.5L369.5 2L2 448.5H291Z" fill="url(#SvgjsLinearGradient1076)" transform="matrix(1,0,0,1,-300,322.63483399010204)"/><path d="M290.5 448L370 2.5L708.5 448H290.5Z" fill="url(#SvgjsLinearGradient1077)" transform="matrix(1,0,0,1,-300,322.63483399010204)"/></g><g transform="matrix(0.610574918022761,0,0,0.610574918022761,0.778850163954478,57.036144923608575)"><path d="M291 448.5L369.5 2L2 448.5H291Z" fill="url(#SvgjsLinearGradient1076)" transform="matrix(1,0,0,1,0,144.46243672580306)"/><path d="M290.5 448L370 2.5L708.5 448H290.5Z" fill="url(#SvgjsLinearGradient1077)" transform="matrix(1,0,0,1,0,144.46243672580306)"/></g><g transform="matrix(0.5422604689860391,0,0,0.5422604689860391,138.2373383662162,81.05070584370849)"><path d="M291 448.5L369.5 2L2 448.5H291Z" fill="url(#SvgjsLinearGradient1076)" transform="matrix(1,0,0,1,300,175.0673098942545)"/><path d="M290.5 448L370 2.5L708.5 448H290.5Z" fill="url(#SvgjsLinearGradient1077)" transform="matrix(1,0,0,1,300,175.0673098942545)"/></g><g transform="matrix(0.5576029239634221,0,0,0.5576029239634221,266.3230397740199,75.29328081387078)"><path d="M291 448.5L369.5 2L2 448.5H291Z" fill="url(#SvgjsLinearGradient1076)" transform="matrix(1,0,0,1,600,168.1938900643869)"/><path d="M290.5 448L370 2.5L708.5 448H290.5Z" fill="url(#SvgjsLinearGradient1077)" transform="matrix(1,0,0,1,600,168.1938900643869)"/></g></svg>