<?xml version="1.0" encoding="utf-8"?>
<!-- Generator: Adobe Illustrator 27.5.0, SVG Export Plug-In . SVG Version: 6.00 Build 0)  -->
<svg version="1.1" xmlns="http://www.w3.org/2000/svg" xmlns:xlink="http://www.w3.org/1999/xlink" x="0px" y="0px"
	 viewBox="0 0 750 500" style="enable-background:new 0 0 750 500;" xml:space="preserve">
<g id="Background_complete">
	<g>
		<rect x="130.429" y="73.257" style="fill:#E6E6E6;" width="73.505" height="138.573"/>
		<rect x="113.983" y="73.257" style="fill:#F0F0F0;" width="86.343" height="138.573"/>
		<rect x="127.107" y="85.565" style="fill:#FFFFFF;" width="60.055" height="113.956"/>
		<rect x="149.685" y="124.14" style="fill:#E0E0E0;" width="19.391" height="29.727"/>
	</g>
	<g>
		<g>
			<path style="fill:#E6E6E6;" d="M80.524,317.577c2.96-3.648,8.68-6.082,14.961-7.254c-0.493,1.796-0.123,3.454,0.939,3.861
				c1.185,0.454,2.773-0.818,3.549-2.841c0.219-0.571,0.34-1.137,0.388-1.67c6.332-0.515,12.664,0.214,16.89,2.242
				c0,0-4.137,3.729-8.824,13.535c-0.144-0.005-0.288-0.01-0.435-0.008c-3.033,0.031-5.477,1.495-5.459,3.271
				c0.013,1.297,1.339,2.399,3.234,2.888c-0.246,0.628-0.492,1.267-0.737,1.93c-4.464,12.082-16.374,3.348-16.267-4.922
				C88.762,328.608,73.891,325.752,80.524,317.577z"/>
			<g>
				<path style="fill:#E6E6E6;" d="M65.851,301.981c-3.647-3.938-10.351-6.285-17.598-7.151c0.696,2.011,0.399,3.928-0.781,4.471
					c-1.317,0.606-3.223-0.725-4.258-2.973c-0.292-0.635-0.473-1.27-0.568-1.875c-7.257-0.113-14.421,1.191-19.088,3.82
					c0,0,4.996,3.942,11.072,14.77c0.164-0.017,0.328-0.033,0.495-0.042c3.46-0.192,6.356,1.295,6.468,3.321
					c0.082,1.48-1.347,2.835-3.471,3.535c0.328,0.698,0.656,1.407,0.985,2.145c5.993,13.44,18.917,2.592,18.177-6.828
					C57.284,315.173,74.024,310.805,65.851,301.981z"/>
				<g>
					<g>
						<g>
							<path style="fill:#EBEBEB;" d="M56.994,299.03c1.549-7.56,8.041-15.443,16.306-21.91c0.644,2.991,2.438,5.127,4.294,4.915
								c2.071-0.236,3.422-3.294,3.019-6.83c-0.114-0.998-0.365-1.914-0.7-2.729c8.838-5.549,18.618-9.286,26.314-9.533
								c0,0-3.204,8.571-2.602,26.413c-0.214,0.102-0.427,0.204-0.64,0.317c-4.397,2.343-6.849,6.33-5.477,8.904
								c1.002,1.881,3.77,2.482,6.902,1.759c0.117,1.102,0.243,2.219,0.388,3.371c2.651,20.992-21.326,17.289-27.437,5.155
								C77.362,308.863,53.524,315.971,56.994,299.03z"/>
						</g>
					</g>
				</g>
				<path style="fill:none;stroke:#E0E0E0;stroke-width:0.75;stroke-miterlimit:10;" d="M74.268,346.923
					c-3.993-22.196,1.972-45.994,15.964-63.681"/>
				
					<path style="fill:none;stroke:#E0E0E0;stroke-width:0.75;stroke-linecap:round;stroke-linejoin:round;stroke-miterlimit:10;" d="
					M44.649,304.266c16.782,8.714,26.053,27.421,28.535,34.697c0,0,20.547-14.908,30.453-21.256"/>
				<g>
					<polygon style="fill:#E0E0E0;" points="98.897,354.016 48.444,354.016 48.464,344.774 98.845,344.774 					"/>
					<polygon style="fill:#E0E0E0;" points="52.099,351.002 59.982,383.795 89.011,383.795 96.04,351.002 					"/>
				</g>
			</g>
		</g>
		<path style="fill:none;stroke:#E0E0E0;stroke-width:0.5;stroke-linecap:round;stroke-linejoin:round;stroke-miterlimit:10;" d="
			M51.258,342.878c1.496,0,2.992,0,4.488,0"/>
		<path style="fill:none;stroke:#E0E0E0;stroke-width:0.5;stroke-linecap:round;stroke-linejoin:round;stroke-miterlimit:10;" d="
			M57.808,342.878c4.094,0,8.188,0,12.282,0"/>
	</g>
	<g>
		<g>
			<path style="fill:#E6E6E6;" d="M466.099,324.024c2.672-3.293,7.835-5.49,13.504-6.548c-0.445,1.621-0.111,3.117,0.847,3.485
				c1.069,0.41,2.503-0.738,3.203-2.564c0.198-0.515,0.307-1.026,0.351-1.508c5.715-0.465,11.431,0.193,15.246,2.024
				c0,0-3.735,3.366-7.965,12.217c-0.13-0.005-0.26-0.009-0.392-0.008c-2.738,0.028-4.944,1.35-4.928,2.953
				c0.012,1.171,1.209,2.165,2.919,2.607c-0.222,0.567-0.444,1.143-0.665,1.742c-4.03,10.906-14.78,3.022-14.683-4.442
				C473.535,333.981,460.112,331.403,466.099,324.024z"/>
			<g>
				<path style="fill:#E6E6E6;" d="M452.855,309.946c-3.292-3.554-9.343-5.673-15.885-6.455c0.628,1.815,0.36,3.546-0.705,4.036
					c-1.188,0.547-2.909-0.654-3.844-2.684c-0.264-0.573-0.427-1.146-0.512-1.693c-6.551-0.102-13.017,1.075-17.229,3.448
					c0,0,4.509,3.558,9.994,13.332c0.148-0.015,0.296-0.03,0.447-0.038c3.123-0.173,5.737,1.169,5.839,2.997
					c0.074,1.336-1.216,2.559-3.133,3.191c0.296,0.63,0.592,1.27,0.889,1.936c5.41,12.132,17.076,2.34,16.407-6.163
					C445.122,321.854,460.232,317.911,452.855,309.946z"/>
				<g>
					<g>
						<g>
							<path style="fill:#EBEBEB;" d="M444.86,307.283c1.398-6.824,7.258-13.939,14.718-19.777c0.581,2.7,2.201,4.628,3.876,4.437
								c1.869-0.213,3.089-2.974,2.725-6.165c-0.103-0.901-0.33-1.728-0.632-2.463c7.978-5.009,16.806-8.382,23.753-8.605
								c0,0-2.892,7.736-2.349,23.841c-0.193,0.092-0.386,0.184-0.578,0.286c-3.969,2.115-6.182,5.713-4.944,8.037
								c0.905,1.698,3.403,2.24,6.23,1.588c0.105,0.994,0.219,2.003,0.35,3.043c2.393,18.948-19.25,15.606-24.766,4.653
								C463.244,316.158,441.727,322.574,444.86,307.283z"/>
						</g>
					</g>
				</g>
				<path style="fill:none;stroke:#E0E0E0;stroke-width:0.75;stroke-miterlimit:10;" d="M460.452,350.513
					c-3.605-20.035,1.78-41.516,14.409-57.482"/>
				
					<path style="fill:none;stroke:#E0E0E0;stroke-width:0.75;stroke-linecap:round;stroke-linejoin:round;stroke-miterlimit:10;" d="
					M433.717,312.009c15.148,7.865,23.516,24.752,25.757,31.319c0,0,18.546-13.457,27.488-19.186"/>
				<g>
					<polygon style="fill:#E0E0E0;" points="482.683,356.915 437.143,356.915 437.16,348.573 482.637,348.573 					"/>
					<polygon style="fill:#E0E0E0;" points="440.442,354.195 447.557,383.795 473.76,383.795 480.105,354.195 					"/>
				</g>
			</g>
		</g>
		<path style="fill:none;stroke:#E0E0E0;stroke-width:0.5;stroke-linecap:round;stroke-linejoin:round;stroke-miterlimit:10;" d="
			M439.682,346.861c1.35,0,2.701,0,4.051,0"/>
		<path style="fill:none;stroke:#E0E0E0;stroke-width:0.5;stroke-linecap:round;stroke-linejoin:round;stroke-miterlimit:10;" d="
			M445.595,346.861c3.695,0,7.391,0,11.086,0"/>
	</g>
	<g>
		<g>
			<path style="fill:#E6E6E6;" d="M686.344,321.948c2.764-3.407,8.107-5.681,13.973-6.775c-0.46,1.678-0.115,3.226,0.877,3.606
				c1.106,0.424,2.59-0.764,3.314-2.654c0.204-0.533,0.318-1.061,0.363-1.56c5.914-0.481,11.828,0.2,15.775,2.094
				c0,0-3.864,3.483-8.241,12.641c-0.134-0.005-0.269-0.009-0.406-0.008c-2.833,0.029-5.116,1.397-5.099,3.055
				c0.012,1.212,1.251,2.241,3.02,2.698c-0.23,0.587-0.46,1.183-0.688,1.802c-4.17,11.285-15.293,3.127-15.193-4.597
				C694.039,332.25,680.149,329.583,686.344,321.948z"/>
			<g>
				<path style="fill:#E6E6E6;" d="M672.64,307.381c-3.406-3.678-9.668-5.87-16.437-6.679c0.65,1.879,0.372,3.669-0.73,4.176
					c-1.23,0.566-3.01-0.677-3.977-2.777c-0.273-0.593-0.442-1.186-0.53-1.752c-6.778-0.106-13.47,1.113-17.828,3.568
					c0,0,4.666,3.682,10.341,13.795c0.153-0.016,0.306-0.031,0.462-0.039c3.232-0.179,5.936,1.209,6.042,3.102
					c0.077,1.382-1.258,2.648-3.242,3.302c0.306,0.651,0.612,1.314,0.92,2.003c5.598,12.553,17.669,2.421,16.977-6.377
					C664.638,319.702,680.273,315.622,672.64,307.381z"/>
				<g>
					<g>
						<g>
							<path style="fill:#EBEBEB;" d="M664.367,304.625c1.447-7.061,7.51-14.424,15.229-20.464c0.601,2.794,2.277,4.788,4.011,4.591
								c1.934-0.221,3.196-3.077,2.82-6.379c-0.106-0.932-0.341-1.788-0.654-2.549c8.255-5.183,17.389-8.673,24.578-8.904
								c0,0-2.992,8.005-2.43,24.67c-0.199,0.095-0.399,0.19-0.598,0.296c-4.107,2.188-6.397,5.912-5.116,8.317
								c0.936,1.757,3.521,2.318,6.447,1.643c0.109,1.029,0.227,2.073,0.363,3.149c2.476,19.607-19.918,16.148-25.626,4.815
								C683.391,313.808,661.126,320.447,664.367,304.625z"/>
						</g>
					</g>
				</g>
				<path style="fill:none;stroke:#E0E0E0;stroke-width:0.75;stroke-miterlimit:10;" d="M680.501,349.356
					c-3.73-20.731,1.842-42.958,14.91-59.479"/>
				
					<path style="fill:none;stroke:#E0E0E0;stroke-width:0.75;stroke-linecap:round;stroke-linejoin:round;stroke-miterlimit:10;" d="
					M652.837,309.515c15.674,8.139,24.333,25.612,26.652,32.407c0,0,19.191-13.924,28.443-19.853"/>
				<g>
					<polygon style="fill:#E0E0E0;" points="703.504,355.981 656.382,355.981 656.4,347.349 703.456,347.349 					"/>
					<polygon style="fill:#E0E0E0;" points="659.796,353.166 667.159,383.795 694.271,383.795 700.837,353.166 					"/>
				</g>
			</g>
		</g>
		<path style="fill:none;stroke:#E0E0E0;stroke-width:0.5;stroke-linecap:round;stroke-linejoin:round;stroke-miterlimit:10;" d="
			M659.01,345.578c1.397,0,2.794,0,4.192,0"/>
		<path style="fill:none;stroke:#E0E0E0;stroke-width:0.5;stroke-linecap:round;stroke-linejoin:round;stroke-miterlimit:10;" d="
			M665.128,345.578c3.824,0,7.648,0,11.471,0"/>
	</g>
	<g>
		<g>
			<g>
				<g>
					<g>
						<g>
							<path style="fill:#E0E0E0;" d="M673.734,322.605H492.988c-3.232,0-5.862-2.63-5.862-5.862V53.469
								c0-3.232,2.63-5.862,5.862-5.862h180.746c3.232,0,5.862,2.629,5.862,5.862v263.273
								C679.596,319.975,676.966,322.605,673.734,322.605z M492.988,47.857c-3.095,0-5.612,2.518-5.612,5.612v263.273
								c0,3.095,2.518,5.612,5.612,5.612h180.746c3.095,0,5.612-2.517,5.612-5.612V53.469c0-3.094-2.518-5.612-5.612-5.612H492.988z
								"/>
						</g>
					</g>
					<g>
						<g>
							<path style="fill:#E0E0E0;" d="M465.306,322.605H284.56c-3.232,0-5.862-2.63-5.862-5.862V53.469
								c0-3.232,2.629-5.862,5.862-5.862h180.747c3.232,0,5.862,2.629,5.862,5.862v263.273
								C471.168,319.975,468.538,322.605,465.306,322.605z M284.56,47.857c-3.094,0-5.612,2.518-5.612,5.612v263.273
								c0,3.095,2.518,5.612,5.612,5.612h180.747c3.095,0,5.612-2.517,5.612-5.612V53.469c0-3.094-2.518-5.612-5.612-5.612H284.56z"
								/>
						</g>
					</g>
				</g>
				<g>
					<g>
						<g>
							<path style="fill:#E0E0E0;" d="M257.012,322.605H76.266c-3.232,0-5.862-2.63-5.862-5.862V53.469
								c0-3.232,2.629-5.862,5.862-5.862h180.746c3.232,0,5.862,2.629,5.862,5.862v263.273
								C262.875,319.975,260.245,322.605,257.012,322.605z M76.266,47.857c-3.094,0-5.612,2.518-5.612,5.612v263.273
								c0,3.095,2.518,5.612,5.612,5.612h180.746c3.095,0,5.612-2.517,5.612-5.612V53.469c0-3.094-2.518-5.612-5.612-5.612H76.266z"
								/>
						</g>
					</g>
				</g>
			</g>
			<g>
				<g>
					<rect y="383.674" style="fill:#E0E0E0;" width="750" height="0.12"/>
				</g>
			</g>
		</g>
		<g>
			<rect x="653.626" y="413.05" style="fill:#EBEBEB;" width="55.729" height="0.421"/>
			<rect x="495.044" y="417.616" style="fill:#EBEBEB;" width="14.627" height="0.421"/>
			<rect x="40.645" y="400.253" style="fill:#EBEBEB;" width="72.674" height="0.421"/>
			<rect x="128.299" y="400.253" style="fill:#EBEBEB;" width="10.656" height="0.421"/>
			<rect x="173.586" y="407.357" style="fill:#EBEBEB;" width="157.613" height="0.421"/>
		</g>
	</g>
</g>
<g id="Background_simple" style="display:none;">
	<g style="display:inline;">
		<path style="fill:#407BFF;" d="M111.518,55.859c-10.159,2.847-19.955,8.907-28.644,18.413
			c-10.24,11.204-20.703,28.659-17.613,51.49c5.705,42.149,33.075,42.917,27.61,71.257c-6.19,32.102-2.039,69.757,25.737,80.228
			c52.756,19.889,116.53-96.484,98.618-160.43C206.075,77.008,165.46,40.745,111.518,55.859z"/>
		<path style="opacity:0.9;fill:#FFFFFF;" d="M111.518,55.859c-10.159,2.847-19.955,8.907-28.644,18.413
			c-10.24,11.204-20.703,28.659-17.613,51.49c5.705,42.149,33.075,42.917,27.61,71.257c-6.19,32.102-2.039,69.757,25.737,80.228
			c52.756,19.889,116.53-96.484,98.618-160.43C206.075,77.008,165.46,40.745,111.518,55.859z"/>
	</g>
</g>
<g id="Shadow">
	<g>
		<g>
			<path style="fill:#F5F5F5;" d="M583.808,453.474c0,3.387-111.006,6.132-247.939,6.132S87.93,456.861,87.93,453.474
				c0-3.387,111.006-6.132,247.939-6.132S583.808,450.087,583.808,453.474z"/>
		</g>
	</g>
</g>
<g id="Window">
	<g>
		<rect x="521.89" y="69.158" style="fill:#407BFF;" width="131.547" height="188.567"/>
		<rect x="521.89" y="69.158" style="opacity:0.8;fill:#FFFFFF;" width="131.547" height="188.567"/>
		<path style="opacity:0.8;fill:#FFFFFF;" d="M564.802,69.158c-23.53,14.843-42.523,26.72-42.523,26.72v38.486l104.794-65.206
			H564.802z"/>
		<path style="opacity:0.8;fill:#FFFFFF;" d="M653.437,69.158h-9.363c-30.001,20.129-121.795,77.532-121.795,77.532v15.955
			l131.157-81.61V69.158z"/>
	</g>
	<g>
		<rect x="311.833" y="68.362" style="fill:#407BFF;" width="131.547" height="188.567"/>
		<rect x="311.833" y="68.362" style="opacity:0.8;fill:#FFFFFF;" width="131.547" height="188.567"/>
		<path style="opacity:0.8;fill:#FFFFFF;" d="M443.38,68.362c0,2.337-131.157,84.355-131.157,84.355v38.486l131.157-81.61V68.362z"
			/>
		<path style="opacity:0.8;fill:#FFFFFF;" d="M443.38,122.385c0,2.337-131.157,84.355-131.157,84.355v15.956l131.157-81.61V122.385z
			"/>
	</g>
</g>
<g id="Cleaning_Trolley">
	<g>
		<g>
			<g>
				<polygon style="fill:#407BFF;" points="187.639,237.838 184.495,221.827 215.734,221.827 218.232,227.228 218.232,221.827 
					223.409,221.827 224.123,228.698 226.087,221.827 235.547,221.827 231.363,237.344 				"/>
				<polygon style="opacity:0.3;fill:#FFFFFF;" points="187.639,237.838 184.495,221.827 215.734,221.827 218.232,227.228 
					218.232,221.827 223.409,221.827 224.123,228.698 226.087,221.827 235.547,221.827 231.363,237.344 				"/>
				<g>
					<rect x="205.161" y="242.268" style="fill:#263238;" width="4.947" height="63.704"/>
					<rect x="186.751" y="237.344" style="fill:#263238;" width="46.715" height="4.924"/>
				</g>
				<rect x="205.161" y="242.268" style="opacity:0.2;enable-background:new    ;" width="4.947" height="3.008"/>
			</g>
			<g>
				<g>
					<path style="fill:#263238;" d="M190.331,257.243c-4.669-0.145-8.171-4.52-9.589-8.97c-1.419-4.45-1.446-9.252-2.869-13.7
						c-1.828-5.713-6.208-10.748-11.928-12.552c-5.72-1.804-12.639,0.111-15.998,5.08c-3.359,4.969-2.189,12.68,2.901,15.852
						l2.412,8.066c6.052,10.424,19.927,15.528,31.291,11.51c-1.094-1.38-2.188-2.76-3.282-4.14
						C185.619,259.186,188.353,258.743,190.331,257.243z"/>
				</g>
				<g style="opacity:0.7;enable-background:new    ;">
					<path style="fill:#FFFFFF;" d="M190.331,257.243c-4.669-0.145-8.171-4.52-9.589-8.97c-1.419-4.45-1.446-9.252-2.869-13.7
						c-1.828-5.713-6.208-10.748-11.928-12.552c-5.72-1.804-12.639,0.111-15.998,5.08c-3.359,4.969-2.189,12.68,2.901,15.852
						l2.412,8.066c6.052,10.424,19.927,15.528,31.291,11.51c-1.094-1.38-2.188-2.76-3.282-4.14
						C185.619,259.186,188.353,258.743,190.331,257.243z"/>
				</g>
				<rect x="155.645" y="243.419" style="fill:#263238;" width="3.313" height="98.795"/>
				<rect x="155.645" y="243.419" style="opacity:0.4;fill:#FFFFFF;" width="3.313" height="98.795"/>
				<path style="fill:#407BFF;" d="M153.629,243.419c0,0-1.804-0.728-2.919-2.307c0,0,13.348,0.165,13.183,0
					c-0.165-0.165-1.17,1.863-3.636,2.307H153.629z"/>
			</g>
		</g>
		<g>
			<path style="fill:#407BFF;" d="M128.47,249.817c-1.893-0.028-4.417-0.036-6.923-0.004c-3.977,0.052-7.388,2.852-8.218,6.742
				l-2.784,13.033l-3.45,19.903c-0.231,1.335,0.796,2.557,2.152,2.557h18.92c1.878,0,3.401-1.523,3.401-3.401l0-35.68
				C131.567,251.246,130.191,249.842,128.47,249.817z M119.832,262.627l-2.408,12.515c-0.295,1.533-1.778,2.537-3.311,2.242
				c-1.534-0.295-2.537-1.778-2.242-3.311l2.408-12.515c0.295-1.533,1.778-2.537,3.311-2.242
				C119.123,259.611,120.127,261.094,119.832,262.627z"/>
			<path style="opacity:0.3;fill:#FFFFFF;" d="M128.47,249.817c-1.893-0.028-4.417-0.036-6.923-0.004
				c-3.977,0.052-7.388,2.852-8.218,6.742l-2.784,13.033l-3.45,19.903c-0.231,1.335,0.796,2.557,2.152,2.557h18.92
				c1.878,0,3.401-1.523,3.401-3.401l0-35.68C131.567,251.246,130.191,249.842,128.47,249.817z M119.832,262.627l-2.408,12.515
				c-0.295,1.533-1.778,2.537-3.311,2.242c-1.534-0.295-2.537-1.778-2.242-3.311l2.408-12.515c0.295-1.533,1.778-2.537,3.311-2.242
				C119.123,259.611,120.127,261.094,119.832,262.627z"/>
			<rect x="120.729" y="243.349" style="fill:#263238;" width="8.842" height="6.443"/>
		</g>
		<path style="fill:#407BFF;" d="M145.151,435.813c-1.596,0.791,0-150.338,0-150.338h83.547c0,0-14.368,151.676-15.965,150.338
			C211.137,434.476,145.151,435.813,145.151,435.813z"/>
		<polygon style="opacity:0.2;enable-background:new    ;" points="145.022,298.633 226.409,309.353 227.327,299.825 		"/>
		<g>
			<polygon style="fill:#263238;" points="81.663,432.475 76.68,378.293 124.704,378.293 119.325,432.272 			"/>
			<polygon style="opacity:0.3;fill:#FFFFFF;" points="81.663,432.475 76.68,378.293 124.704,378.293 119.325,432.272 			"/>
			<rect x="74.754" y="377.808" style="fill:#263238;" width="51.688" height="3.409"/>
		</g>
		<rect x="74.754" y="431.962" style="fill:#263238;" width="149.108" height="7.701"/>
		<rect x="129.638" y="291.037" style="fill:#263238;" width="9.603" height="140.926"/>
		<rect x="74.754" y="291.116" style="fill:#263238;" width="153.944" height="7.944"/>
		
			<ellipse transform="matrix(0.1602 -0.9871 0.9871 0.1602 -355.6078 464.2013)" style="fill:#263238;" cx="94.998" cy="441.084" rx="13.84" ry="13.84"/>
		<circle style="fill:#407BFF;" cx="94.998" cy="441.02" r="6.92"/>
		
			<ellipse transform="matrix(0.1602 -0.9871 0.9871 0.1602 -263.5334 563.3094)" style="fill:#263238;" cx="199.279" cy="436.528" rx="18.396" ry="18.396"/>
		<circle style="fill:#407BFF;" cx="199.279" cy="436.443" r="9.198"/>
		<g>
			<rect x="103.915" y="240.758" style="fill:#263238;" width="2.025" height="5.655"/>
			<g>
				<path style="fill:#407BFF;" d="M107.215,270.906c-1.244-3.887-8.552-7.619-8.241-10.418c0.311-2.799,0.268-6.531,0.268-6.531
					h-7.265c-0.622,0.622-6.842,12.906-4.509,27.366l1.994,9.64h14.643C104.105,290.965,108.458,274.794,107.215,270.906z"/>
				<rect x="91.056" y="250.041" style="fill:#263238;" width="8.638" height="3.593"/>
				<path style="fill:#263238;" d="M85.011,248.267c0,0,0.981-6.405,5.63-6.766c4.648-0.362,13.274,0,13.274,0v4.339h-4.221v4.201
					h-8.279v-3.117C91.415,246.924,89.35,245.478,85.011,248.267z"/>
				<path style="fill:#263238;" d="M99.694,248.43c0,0,0.664,3.611,6.037,3.997l0.208-0.903c0,0-4.097-1.27-4.206-5.685h-2.04
					V248.43z"/>
			</g>
		</g>
		<g>
			<rect x="141.167" y="281.784" style="fill:#407BFF;" width="90.015" height="9.708"/>
			<rect x="141.167" y="281.784" style="opacity:0.3;" width="90.015" height="9.708"/>
		</g>
		<polygon style="opacity:0.2;enable-background:new    ;" points="77.179,383.723 76.949,381.217 124.287,381.217 124.287,383.723 
					"/>
		<polygon style="opacity:0.7;fill:#FFFFFF;enable-background:new    ;" points="131.567,260.09 123.725,260.09 119.883,284.703 
			131.567,284.703 		"/>
		<g style="opacity:0.5;">
			<rect x="74.754" y="377.808" style="fill:#FFFFFF;" width="51.688" height="3.409"/>
		</g>
		<path style="fill:none;stroke:#263238;stroke-miterlimit:10;" d="M76.949,379.512c0,0,6.97,27.282,45.152,24.906"/>
	</g>
</g>
<g id="Character_2_00000028311002483424302490000005210029611792597175_">
	<g>
		<g>
			<g>
				<path style="fill:#E9B376;" d="M539.495,217.878l-4.192,17.125l-35.183,20.855l2.561,6.843c0,0,39.941-10.474,42.602-14.102
					c2.661-3.628,9.891-27.613,9.891-27.613L539.495,217.878z"/>
				<polygon style="opacity:0.3;" points="538.467,222.077 537.807,224.774 550.104,228.071 551.925,231.307 552.652,229.061 
					551.526,223.518 				"/>
				<g>
					<g>
						<g>
							<g>
								<g>
									<g>
										<g>
											<path style="fill:#407BFF;" d="M508.309,253.061c0,0-1.788-2.89-4.53-3.502c-2.742-0.612-4.769-1.831-6.839-2.145
												c-2.07-0.314-0.233,1.833,0.976,2.778c1.208,0.945,2.569,2.028,1.712,2.82c-0.856,0.793-10.638,3.046-11.7,4.28
												c-1.062,1.234,0.634,1.365,0.634,1.365s-2.361,0.611-2.374,1.612c-0.003,0.26,0.411,0.87,1.53,0.76
												c2.519-0.247,7.778-1.038,7.778-1.038c-0.303,0.039-6.724,1.479-7.658,1.82c-1.22,0.446-1.568,1.279-1.287,1.978
												c0.401,0.995,8.424-0.519,8.807-0.346c0,0-4.648,0.717-5.12,2.018c-0.471,1.301,2.479,1.009,5.032,0.258
												c2.34-0.689,7.111-1.427,9.422-2.359c2.848-1.147,4.502-2.557,4.627-5.433
												C509.444,255.051,508.309,253.061,508.309,253.061z"/>
										</g>
									</g>
								</g>
							</g>
						</g>
					</g>
					
						<path style="opacity:0.3;fill:none;stroke:#000000;stroke-width:0.25;stroke-linecap:round;stroke-linejoin:round;stroke-miterlimit:10;" d="
						M488.855,258.517c1.904-0.442,3.829-0.798,5.766-1.065"/>
					
						<path style="opacity:0.3;fill:none;stroke:#000000;stroke-width:0.25;stroke-linecap:round;stroke-linejoin:round;stroke-miterlimit:10;" d="
						M497.173,263.227c-1.197-2.224-1.721-4.804-1.487-7.319"/>
				</g>
			</g>
			<polyline style="fill:#407BFF;" points="505.574,251.91 513.978,246.907 517.928,259.568 505.574,262.246 507.197,256.651 
				505.288,251.976 			"/>
		</g>
		<g>
			<g>
				<g>
					<g>
						<g>
							<polygon style="fill:#E9B376;" points="554.825,423.923 547.046,445.57 539.78,443.3 542.054,420.51 							"/>
						</g>
					</g>
				</g>
			</g>
			<g>
				<g>
					<g>
						<g>
							<g>
								<g>
									<g>
										<g>
											<g>
												<g>
													<g>
														<g>
															<path style="fill:#263238;" d="M548.198,451.957l-0.002,0.001c-0.165,1.587-0.281,2.678-0.281,2.678l-6.568,0.015
																c0,0-1.329-0.703-2.109-0.607c-0.777,0.097-3.481,0.619-3.481,0.619l-17.441,0.04
																c0.138-0.732,0.308-1.383,0.503-1.961c0.237-0.704,0.514-1.301,0.821-1.806c1.077-1.766,2.549-2.397,4.152-2.501
																c2.442-0.159,10.116-5.306,10.116-5.306s2.786-0.981,2.93-3.95c0.055-1.113,1.695-2.475,2.476-2.588
																c1.594-0.234,2.484,0.774,2.719,2.368l0.272,1.852l3.682-0.582c0,0,3.743-1.895,3.566-0.062"/>
														</g>
													</g>
												</g>
											</g>
										</g>
									</g>
									<g style="opacity:0.2;">
										<path style="fill:#FFFFFF;" d="M518.318,454.703l17.441-0.04c0,0,2.704-0.522,3.481-0.619
											c0.78-0.096,2.109,0.607,2.109,0.607l6.568-0.015c0,0,0.115-1.09,0.281-2.678l-29.376,0.785
											C518.626,453.32,518.455,453.971,518.318,454.703z"/>
									</g>
									<g>
										<g>
											<g>
												<g>
													<path style="fill:#407BFF;" d="M530.087,445.041c0.081-0.079,0.205-0.088,0.3-0.026
														c0.433,0.286,0.797,0.691,1.045,1.198c0.131,0.268-0.26,0.527-0.392,0.257c-0.221-0.451-0.539-0.809-0.917-1.06
														c-0.126-0.084-0.148-0.26-0.04-0.366C530.085,445.044,530.086,445.042,530.087,445.041z"/>
												</g>
											</g>
										</g>
									</g>
									<g>
										<g>
											<g>
												<g>
													<path style="fill:#407BFF;" d="M531.473,444.221c0.081-0.079,0.205-0.088,0.3-0.026
														c0.433,0.286,0.797,0.691,1.045,1.198c0.131,0.268-0.26,0.527-0.392,0.257c-0.221-0.451-0.539-0.809-0.917-1.06
														c-0.127-0.084-0.148-0.26-0.04-0.366C531.471,444.223,531.472,444.222,531.473,444.221z"/>
												</g>
											</g>
										</g>
									</g>
									<g>
										<g>
											<g>
												<g>
													<path style="fill:#407BFF;" d="M532.902,443.455c0.081-0.079,0.206-0.088,0.3-0.026
														c0.433,0.286,0.797,0.691,1.045,1.198c0.131,0.268-0.26,0.527-0.392,0.257c-0.22-0.451-0.539-0.809-0.917-1.06
														c-0.126-0.084-0.148-0.26-0.039-0.366C532.9,443.457,532.901,443.456,532.902,443.455z"/>
												</g>
											</g>
										</g>
									</g>
								</g>
							</g>
						</g>
					</g>
				</g>
			</g>
		</g>
		<g>
			<g>
				<g>
					<g>
						<g>
							<polygon style="fill:#E9B376;" points="605.018,421.52 608.448,444.96 616.101,445.271 618.356,422.62 							"/>
						</g>
					</g>
				</g>
			</g>
			<g>
				<g>
					<g>
						<path style="fill:#263238;" d="M622.717,455.718l-17.11,0.168c0,0-0.38-0.715,0.027-2.632
							c0.062-0.299,0.144-0.627,0.251-0.985c0.006-0.018,0.01-0.036,0.015-0.053c0.155-0.531,0.332-1.184,0.52-1.889
							c0.756-2.872,1.641-6.624,1.641-6.624s2.787-6.122,6.132-4.633c2.935,1.306,2.279,5.133,2.279,5.133s0.308,2.24,2.543,4.196
							c1.382,1.209,2.753,2.141,3.424,3.655c0.125,0.283,0.225,0.584,0.297,0.911c0.008,0.039,0.017,0.081,0.023,0.122
							C622.904,453.817,622.905,454.676,622.717,455.718z"/>
					</g>
				</g>
			</g>
			<g style="opacity:0.2;">
				<path style="fill:#FFFFFF;" d="M605.635,453.254c-0.408,1.917-0.027,2.632-0.027,2.632l17.11-0.168
					c0.187-1.042,0.187-1.901,0.043-2.633L605.635,453.254z"/>
			</g>
			<g>
				<g>
					<g>
						<g>
							<path style="fill:#407BFF;" d="M615.794,445.168c-0.97-0.74-2.232-0.631-3.089,0.222c-0.231,0.229-0.591-0.124-0.361-0.353
								c1.07-1.064,2.612-1.138,3.803-0.229C616.406,445.004,616.05,445.363,615.794,445.168L615.794,445.168z"/>
						</g>
					</g>
				</g>
			</g>
			<g>
				<g>
					<g>
						<g>
							<path style="fill:#407BFF;" d="M616.293,446.761c-0.97-0.741-2.232-0.631-3.089,0.222c-0.23,0.229-0.591-0.124-0.36-0.353
								c1.07-1.064,2.612-1.138,3.803-0.229C616.905,446.597,616.548,446.956,616.293,446.761L616.293,446.761z"/>
						</g>
					</g>
				</g>
			</g>
			<g>
				<g>
					<g>
						<g>
							<path style="fill:#407BFF;" d="M616.792,448.226c-0.97-0.74-2.231-0.631-3.089,0.222c-0.23,0.229-0.591-0.124-0.36-0.354
								c1.07-1.064,2.612-1.138,3.803-0.229C617.404,448.062,617.048,448.421,616.792,448.226L616.792,448.226z"/>
						</g>
					</g>
				</g>
			</g>
		</g>
		<g>
			<g>
				<g>
					<path style="fill:#263238;" d="M622.82,276.418l-35.821,0.655l-22.488-0.461c0,0-15.124,68.218-16.338,81.049
						c-1.214,12.831-12.065,80.438-12.065,80.438l17.52,3.667c0,0,19.167-72.361,20.533-79.31
						c1.19-6.057,14.621-44.942,18.051-54.83c0.375,2.015,0.759,4.038,1.149,6.044c0.982,9.076,4.127,38.013,5.478,48.779
						c0,0,3.311,61.545,6.627,79.394l16.452-0.133c1.922-25.404,2.44-114.575,2.44-114.575l-0.003-0.001
						C625.384,307.758,622.82,276.418,622.82,276.418z"/>
				</g>
			</g>
			<g style="opacity:0.5;">
				<path d="M573.831,286.7c-2.022,6.887-7.553,12.457-14.424,14.53c-0.37,0.112-0.207,0.692,0.166,0.58
					c7.074-2.135,12.76-7.866,14.841-14.956C574.524,286.481,573.94,286.328,573.831,286.7L573.831,286.7z"/>
				<path d="M592.593,286.514c-0.348,6.011-0.686,12.032-1.034,18.044c-0.016,0.388-0.616,0.394-0.601,0.006
					c0.183-3.083,0.356-6.176,0.529-9.269c-1.471,1.158-3.219-0.211-3.719-1.737c-0.819-2.473-0.547-5.421,0.048-7.908
					c0.093-0.379,0.676-0.22,0.583,0.149c-0.419,1.748-0.585,3.533-0.442,5.324c0.067,0.91,0.165,1.956,0.599,2.785
					c0.484,0.925,1.693,1.698,2.644,0.846c0.106-0.088,0.222-0.099,0.319-0.052c0.158-2.724,0.315-5.458,0.472-8.183
					C592.008,286.133,592.609,286.127,592.593,286.514z"/>
				<path d="M610.269,287.364c-0.007,7.964,6.189,14.573,14.122,15.121c0.38,0.026,0.372-0.566-0.006-0.592
					c-7.612-0.526-13.531-6.913-13.524-14.535C610.862,286.977,610.269,286.983,610.269,287.364L610.269,287.364z"/>
			</g>
			<g style="opacity:0.3;">
				<g>
					<path style="fill:#FFFFFF;" d="M622.82,276.418l-35.821,0.655l-22.488-0.461c0,0-15.124,68.218-16.338,81.049
						c-1.214,12.831-12.065,80.438-12.065,80.438l17.52,3.667c0,0,19.167-72.361,20.533-79.31
						c1.19-6.057,14.621-44.942,18.051-54.83c0.375,2.015,0.759,4.038,1.149,6.044c0.982,9.076,4.127,38.013,5.478,48.779
						c0,0,3.311,61.545,6.627,79.394l16.452-0.133c1.922-25.404,2.44-114.575,2.44-114.575l-0.003-0.001
						C625.384,307.758,622.82,276.418,622.82,276.418z"/>
				</g>
			</g>
		</g>
		<path style="fill:#407BFF;" d="M550.965,193.465c-7.086,4.16-14.142,28.77-14.142,28.77l21.594,7.045l6.877-14.426
			L550.965,193.465z"/>
		<path style="opacity:0.2;enable-background:new    ;" d="M555.673,214.084l-1.128,14.031l-4.976-1.722
			c2.006-5.376,1.01-25.216,1.01-25.216S553.849,210.524,555.673,214.084z"/>
		<g id="freepik--group--inject-124_00000006693355082606306160000004963946775558344110_">
			<path style="fill:#407BFF;" d="M596.215,184.487c-4.045,3.02-8.596,9.918-4.984,17.437c2.567,5.344,10.078,15.73,10.078,15.73
				l18.833-10.596C620.143,207.058,603.295,180.554,596.215,184.487z"/>
		</g>
		<g>
			<path style="fill:#407BFF;" d="M554.879,191.659c5.062-1.458,20.412-7.123,42.299-7.57l11.594,21.252l10.882,52.936
				c0,0,2.141,6.064,3.93,17.64c-20.034,13.335-47.455,13.041-63.346,7.442c-0.619-6.826,0.446-5.503-1.043-18.657
				c-2.624-23.18-7.64-49.772-8.424-70.968C550.759,193.208,554.374,191.805,554.879,191.659z"/>
		</g>
		<g>
			<path style="fill:#263238;" d="M556.958,215.843c-0.427,1.933,2.778,42.674,2.778,42.674s0.5,12.322,1.034,14.253
				c0.534,1.931-14.544,113.683-4.311,118.941s55.095,2.219,55.095,2.219s-0.993-125.053,1.418-132.04
				c2.411-6.987,6.669-9.925,6.669-9.925l-2.936-14.906l-7.138,0.374c0,0-9.37-31.213-13.494-29.641
				C591.949,209.364,556.958,215.843,556.958,215.843z"/>
			<g>
				<g>
					<path style="fill:#263238;" d="M558.873,217.279c0.887,0.113,1.774,0.225,2.661,0.338c-0.003-0.009-0.006-0.018-0.009-0.027
						c0.001,0.001-0.015-0.07-0.016-0.07c-0.01-0.001,0.033,0.397,0.019,0.135c-0.013-0.241-0.032-0.48-0.041-0.721
						c-0.028-0.747-0.026-1.494-0.024-2.241c0.008-2.266,0.063-4.533,0.123-6.799c0.13-4.904,0.306-9.807,0.498-14.71
						c0.043-1.1,0.086-2.2,0.132-3.299c0.081-1.93-2.919-1.927-3,0c-0.366,8.744-0.879,17.536-0.747,26.289
						c0.01,0.68-0.022,1.435,0.14,2.102c0.337,1.387,2.053,1.732,2.855,0.519C562.531,217.178,559.934,215.674,558.873,217.279
						L558.873,217.279z"/>
				</g>
			</g>
			<g>
				<g>
					<path style="fill:#263238;" d="M596.891,213.325c-2.997-9.679-5.995-19.357-8.992-29.036c-0.569-1.839-3.466-1.054-2.893,0.798
						c2.997,9.679,5.995,19.357,8.992,29.036C594.568,215.961,597.464,215.177,596.891,213.325L596.891,213.325z"/>
				</g>
			</g>
			<g>
				<polyline style="opacity:0.6;fill:#FFFFFF;enable-background:new    ;" points="582.963,223.82 593.344,220.117 
					595.879,227.224 585.497,230.926 				"/>
				<path style="fill:#407BFF;" d="M585.487,219.02l1.908,3.264c0.244,0.427,0.771,0.601,1.221,0.404l0,0
					c0.398-0.165,0.643-0.57,0.603-0.999l-0.417-4.218L585.487,219.02z"/>
				<path style="opacity:0.4;enable-background:new    ;" d="M585.487,219.02l1.908,3.264c0.244,0.427,0.771,0.601,1.221,0.404l0,0
					c0.398-0.165,0.643-0.57,0.603-0.999l-0.417-4.218L585.487,219.02z"/>
			</g>
		</g>
		<g style="opacity:0.2;enable-background:new    ;">
			<path d="M593.836,273.031c4.56-1.032,8.327-5.846,10.295-10.087c2.029-4.374,4.286-11.766,4.286-11.766
				c-2.68,3.459-5.36,6.917-8.04,10.376c-1.648,2.127-3.322,4.28-5.46,5.915c-2.965,2.267-6.632,3.394-10.257,4.286
				c-4.682,1.153-9.442,1.988-14.236,2.499C570.424,274.254,581.318,275.863,593.836,273.031z"/>
		</g>
		<path style="fill:#E9B376;" d="M619.163,207.609c0,0,13.589,20.451,11.718,25.878c-1.871,5.427-34.505,32.728-34.505,32.728
			l-4.653-7.588l22.129-28.322l-8.821-14.745L619.163,207.609z"/>
		<g>
			<g>
				<g>
					<path style="fill:#E9B376;" d="M578.926,185.29c0,0-2.636-5.708-2.277-17.096c-0.003-0.011-0.625-0.116-0.628-0.127
						c0.044-1.591,0.144-3.077,0.265-4.373c0.001-0.037-0.002-0.048-0.002-0.048l-12.206,12.675
						c1.209,3.303,1.669,10.165,1.652,13.117c0,0-0.548,5.479,6.172,3.992C576.812,192.342,578.926,185.29,578.926,185.29z"/>
					<path style="opacity:0.2;" d="M565.048,181.15l7.864-4.018c-0.093,2.789-1.602,6.454-7.346,8.192
						C565.567,185.324,565.402,182.271,565.048,181.15z"/>
				</g>
				<g>
					<path style="fill:#263238;" d="M547.638,153.831c-0.848,3.792,0.436,11.325,5.385,8.419
						C557.973,159.344,549.095,147.313,547.638,153.831z"/>
					<path style="fill:#E9B376;" d="M574.591,156.572c1.376,9.444,2.343,14.742-1.384,20.471
						c-5.606,8.617-17.736,6.805-21.917-2.063c-3.764-7.983-5.382-22.085,3.006-27.62
						C562.56,141.906,573.215,147.128,574.591,156.572z"/>
					<path style="fill:#263238;" d="M573.814,145.275c-2.354-4.871-15.627-2.397-18.675,0.98c-0.456,0.505,7.973,2.742,7.475,2.67
						l3.851,0.491c0.527-0.238,1.749,0.181,2.671,1.782c0,0,0.694,10.159,5.61,13.45c3.659-2.715,4.425-4.601,4.746-8.189
						C579.97,151.113,576.51,147.682,573.814,145.275z"/>
					<path style="fill:#E9B376;" d="M579.898,163.574c-0.244,2.557-1.652,4.753-3.31,6.058c-2.494,1.964-4.986,0.024-5.336-2.969
						c-0.315-2.694,0.602-6.961,3.607-7.755C577.819,158.126,580.177,160.652,579.898,163.574z"/>
					<path style="fill:#263238;" d="M561.808,162.053c0.2,0.954-0.146,1.828-0.772,1.953c-0.626,0.125-1.295-0.548-1.494-1.503
						c-0.2-0.954,0.146-1.828,0.772-1.953C560.939,160.426,561.608,161.099,561.808,162.053z"/>
					<path style="fill:#263238;" d="M552.489,164.195c0.2,0.954-0.146,1.828-0.772,1.953c-0.626,0.124-1.295-0.548-1.495-1.502
						c-0.2-0.954,0.146-1.828,0.772-1.953C551.62,162.569,552.289,163.241,552.489,164.195z"/>
					<path style="fill:#D58745;" d="M555.423,163.03c0,0-2.03,5.372-2.594,7.505c1.579,0.922,3.751-0.109,3.751-0.109
						L555.423,163.03z"/>
					<path style="fill:#263238;" d="M563.2,157.068c-0.132,0.089-0.307,0.107-0.461,0.031c-1.834-0.9-3.294-0.069-3.309-0.06
						c-0.217,0.127-0.499,0.055-0.628-0.161c-0.129-0.216-0.056-0.494,0.159-0.622c0.077-0.045,1.906-1.088,4.182,0.029
						c0.227,0.111,0.321,0.384,0.209,0.609C563.316,156.968,563.263,157.026,563.2,157.068z"/>
				</g>
				
					<path style="opacity:0.2;fill:none;stroke:#000000;stroke-width:0.5;stroke-linecap:round;stroke-linejoin:round;stroke-miterlimit:10;" d="
					M577.23,161.442c-0.492-0.478-1.301-0.523-1.919-0.226c-0.619,0.297-1.063,0.876-1.347,1.5
					c-0.342,0.749-0.484,1.589-0.407,2.409"/>
			</g>
			<g>
				<g>
					<path d="M565.628,168.241l-7.279,4.859c0.707,0.749,1.424,1.506,2.301,2.046c0.876,0.54,1.824,0.614,2.826,0.378
						c1.434-0.339,2.554-1.51,2.799-2.963C566.518,171.109,566.14,169.623,565.628,168.241z"/>
				</g>
				<path style="fill:#FFFFFF;" d="M558.934,172.709c0,0,0.814,0.856,1.354,0.871s5.815-3.876,5.815-3.876l-0.476-1.463
					L558.934,172.709z"/>
				<path style="fill:#DE5753;" d="M562.419,175.652c0,0,0.024-1.516,1.497-2.617c1.472-1.101,2.419-0.988,2.419-0.988
					s-0.043,1.801-1.441,2.798C563.496,175.842,562.419,175.652,562.419,175.652z"/>
			</g>
			<g>
				<path style="fill:#407BFF;" d="M546.898,155.28c0,0,3.014-15.248,16.442-14.798c13.427,0.45,16.08,7.705,16.286,15.554
					c0,0-13.123-2.842-18.737-3.353C555.275,152.173,546.898,155.28,546.898,155.28z"/>
				<path style="opacity:0.2;enable-background:new    ;" d="M546.898,155.28c0,0,3.014-15.248,16.442-14.798
					c13.427,0.45,16.08,7.705,16.286,15.554c0,0-13.123-2.842-18.737-3.353C555.275,152.173,546.898,155.28,546.898,155.28z"/>
			</g>
			<g>
				<path style="fill:#407BFF;" d="M553.458,151.591c-7.133,1.312-9.755,1.635-15.851,4.731c-0.977,0.496-1.966,1.058-2.606,1.947
					c-0.64,0.889-0.834,2.189-0.173,3.062c0.437,0.577,1.121,1.004,1.841,1.083c2.524,0.276,8.118-0.144,11.556-0.717l0.075-3.445
					c0.038-1.756,1.162-3.318,2.832-3.861c2.265-0.736,5.21-1.45,7.801-1.406c6.056,0.103,11.228,0.808,17.215,2.333
					c-5.14-2.467-8.458-3.481-14.362-4.014C560.189,151.16,557.728,150.805,553.458,151.591z"/>
			</g>
			<g>
				<path style="fill:#407BFF;" d="M567.375,139.567c-0.53-0.345-1.226-0.39-1.821-0.175c-0.594,0.215-1.086,0.669-1.407,1.214
					l3.982,0.587C568.232,140.569,567.904,139.912,567.375,139.567z"/>
			</g>
			<path style="fill:#263238;" d="M547.518,161.031c-0.087-0.001-0.174-0.026-0.252-0.078c-0.21-0.141-0.268-0.425-0.129-0.634
				c1.393-2.096,3.491-2.068,3.585-2.079c0.252,0.005,0.455,0.212,0.453,0.464c-0.002,0.251-0.205,0.451-0.455,0.449
				c-0.087-0.005-1.703-0.005-2.822,1.677C547.81,160.962,547.665,161.033,547.518,161.031z"/>
		</g>
		<g>
			<g>
				<path style="fill:#E0E0E0;" d="M490.862,441.107c10.189-23.812,21.21-47.273,32.787-70.44
					c11.939-23.89,24.47-47.519,38.122-70.478c3.078-5.176,6.209-10.324,9.446-15.402c0.919-1.443,1.855-2.876,2.842-4.274
					c0.246-0.349,0.496-0.696,0.749-1.04c0.03-0.04,0.881-1.155,0.327-0.447c0.524-0.669,1.066-1.325,1.628-1.962
					c1.129-1.281,2.357-2.428,3.628-3.564c1.013-0.905-0.688,0.446,0.388-0.313c0.335-0.237,0.668-0.475,1.011-0.7
					c0.688-0.451,1.399-0.865,2.129-1.242c0.365-0.188,0.736-0.365,1.111-0.534c-0.883,0.398,0.349-0.124,0.444-0.158
					c0.766-0.274,1.547-0.504,2.341-0.682c0.394-0.088,0.791-0.164,1.19-0.225c-1.051,0.162,0.258-0.002,0.401-0.01
					c0.4-0.023,0.801-0.032,1.201-0.025c0.14,0.002,1.544,0.088,1,0.037c-0.681-0.064,0.602,0.115,0.593,0.113
					c0.369,0.078,0.734,0.17,1.096,0.276c0.303,0.089,0.598,0.203,0.9,0.295c1.017,0.312-0.872-0.454,0.069,0.017
					c0.544,0.273,1.082,0.542,1.599,0.864c0.255,0.159,0.497,0.335,0.748,0.499c0.389,0.286,0.324,0.232-0.196-0.163
					c0.155,0.125,0.308,0.253,0.458,0.383c0.377,0.327,0.738,0.672,1.084,1.032c0.209,0.217,0.411,0.44,0.609,0.668
					c0.195,0.225,0.908,0.813,0.06,0.033c0.912,0.839,1.573,2.341,2.125,3.431c0.144,0.284,0.282,0.571,0.416,0.861
					c0.028,0.06,0.45,1.031,0.161,0.346c-0.29-0.688,0.116,0.305,0.138,0.364c0.117,0.305,0.23,0.612,0.339,0.921
					c0.477,1.36,0.868,2.75,1.19,4.154c0.276,1.207,0.484,2.423,0.682,3.644c0.186,1.146-0.108-1.013,0.02,0.139
					c0.037,0.334,0.079,0.667,0.113,1.001c0.081,0.772,0.145,1.546,0.194,2.322c0.222,3.474,0.177,6.972,0.107,10.45
					c-0.157,7.856-0.729,15.695-1.285,23.53c-1.088,15.34-2.084,30.792,0.166,46.078c1.719,11.679,5.518,23.325,11.805,33.366
					c3.114,4.973,6.87,9.643,11.284,13.524c2.297,2.02,4.762,3.885,7.364,5.495c1.974,1.221,4.284,2.745,6.567,3.252
					c2.847,0.633,5.79,0.945,8.698,1.103c2.354,0.128,4.605-2.161,4.5-4.5c-0.114-2.548-1.978-4.363-4.5-4.5
					c-0.902-0.049-1.803-0.113-2.702-0.204c-0.392-0.04-0.782-0.088-1.173-0.132c1.153,0.132,0.048,0.004-0.165-0.029
					c-0.842-0.13-1.748-0.448-2.596-0.492c-0.02-0.001-0.132-0.049-0.153-0.037c0.247,0.1,0.493,0.2,0.74,0.3
					c-0.216-0.101-0.431-0.204-0.645-0.309c-0.533-0.26-1.061-0.531-1.583-0.811c-1.346-0.723-2.655-1.513-3.922-2.364
					c-0.581-0.391-1.154-0.794-1.717-1.21c-0.147-0.108-1.077-0.836-0.202-0.142c-0.274-0.217-0.547-0.434-0.817-0.655
					c-1.08-0.884-2.122-1.815-3.125-2.785c-1.005-0.973-1.971-1.986-2.897-3.034c-0.465-0.526-0.919-1.061-1.364-1.604
					c-0.223-0.272-0.44-0.548-0.661-0.822c-0.309-0.394-0.29-0.369,0.057,0.076c-0.142-0.187-0.284-0.375-0.424-0.564
					c-1.694-2.284-3.227-4.686-4.606-7.173c-0.698-1.257-1.357-2.535-1.978-3.832c-0.26-0.543-0.514-1.089-0.761-1.637
					c-0.149-0.33-0.292-0.662-0.439-0.993c-0.201-0.468-0.192-0.443,0.028,0.075c-0.093-0.223-0.186-0.447-0.277-0.671
					c-2.248-5.52-3.888-11.284-4.995-17.138c-0.248-1.31-0.468-2.626-0.662-3.945c-0.029-0.194-0.194-1.413-0.04-0.239
					c-0.047-0.358-0.093-0.717-0.136-1.076c-0.101-0.834-0.191-1.67-0.271-2.506c-0.363-3.811-0.538-7.64-0.591-11.468
					c-0.11-8.005,0.339-16.004,0.884-23.988c0.546-8.002,1.194-16,1.482-24.018c0.247-6.866,0.36-13.753-0.696-20.56
					c-0.843-5.436-2.579-11.085-5.907-15.537c-3.873-5.182-9.588-8.568-16.192-8.513c-15.468,0.127-23.934,14.93-31.04,26.488
					c-13.864,22.551-26.458,45.886-38.468,69.469c-12.043,23.648-23.477,47.621-34.118,71.933c-1.175,2.684-2.338,5.372-3.491,8.066
					c-0.923,2.158-0.716,4.926,1.614,6.157C486.638,443.742,489.873,443.418,490.862,441.107L490.862,441.107z"/>
			</g>
		</g>
		<g>
			<path style="fill:#407BFF;" d="M714.32,442.921h-57.248c-2.241,0-4.058-1.817-4.058-4.058v-70.006
				c0-2.241,1.817-4.058,4.058-4.058h57.248c2.241,0,4.058,1.817,4.058,4.058v70.006
				C718.378,441.104,716.561,442.921,714.32,442.921z"/>
			<rect x="651.224" y="376.131" style="fill:#263238;" width="69.056" height="9.745"/>
			<path style="fill:#263238;" d="M651.478,368.016c0.554,0,68.801,0,68.801,0l-1.044-6.211h-11.404l-8.276-8.276h-31.283
				l-7.278,8.284l-9.517,0.36V368.016z"/>
			<circle style="fill:#263238;" cx="708.948" cy="441.006" r="12.484"/>
			<circle style="fill:#263238;" cx="666.782" cy="446.181" r="7.536"/>
			<rect x="643.677" y="418.088" style="fill:#407BFF;" width="9.336" height="9.336"/>
			<rect x="653.013" y="385.876" style="opacity:0.3;" width="65.364" height="3.535"/>
		</g>
		<g>
			<rect x="446.184" y="444.492" style="fill:#263238;" width="64.515" height="8.126"/>
			<rect x="454.563" y="441.378" style="fill:#263238;" width="46.454" height="4.74"/>
			<path style="fill:#263238;" d="M478.714,441.845c0.244,0,6.87-14.163,6.87-14.163l11.191,2.257l-5.441,11.438L478.714,441.845z"
				/>
		</g>
		<path style="fill:#407BFF;" d="M591.366,255.805c-0.59,0.054-9.418,3.339-12.655,7.67l4.057-0.889l-4.402,10.96
			c0,0-0.889,4.661,5.083,1.915c5.972-2.746,7.863,2.389,11.571-3.078c3.708-5.467,7.741-10.865,7.741-10.865l6.509-4.647
			l-11.178-11.745L591.366,255.805z"/>
		<rect x="651.224" y="418.088" style="opacity:0.3;" width="1.79" height="9.336"/>
		<g>
			<g>
				<path style="fill:#407BFF;" d="M720.88,393.93c0,8.443,0,16.887,0,25.331c0,0.483,0.75,0.483,0.75,0c0-8.444,0-16.887,0-25.331
					C721.63,393.448,720.88,393.447,720.88,393.93L720.88,393.93z"/>
			</g>
		</g>
		<g>
			<g>
				<path style="fill:#407BFF;" d="M720.88,423.427c0,1.029,0,2.059,0,3.088c0,0.483,0.75,0.483,0.75,0c0-1.029,0-2.059,0-3.088
					C721.63,422.944,720.88,422.944,720.88,423.427L720.88,423.427z"/>
			</g>
		</g>
	</g>
</g>
<g id="Desk">
	<g>
		<g>
			<g>
				<path style="fill:#263238;enable-background:new    ;" d="M531.082,298.739c0.204,2.561-1.425,4.64-3.641,4.64h-70.242
					c-2.228,0-4.195-2.08-4.399-4.64l-4.172-51.694c-0.046-0.533-0.011-1.04,0.09-1.508c0.396-1.82,1.787-3.133,3.551-3.133h70.242
					c2.228,0,4.195,2.08,4.399,4.641L531.082,298.739z"/>
				<path style="opacity:0.7;fill:#FFFFFF;" d="M531.082,298.739c0.204,2.561-1.425,4.64-3.641,4.64h-70.242
					c-2.228,0-4.195-2.08-4.399-4.64l-4.172-51.694c-0.046-0.533-0.011-1.04,0.09-1.508c0.396-1.82,1.787-3.133,3.551-3.133h70.242
					c2.228,0,4.195,2.08,4.399,4.641L531.082,298.739z"/>
				<path style="fill:#263238;enable-background:new    ;" d="M527.193,303.379h-69.994c-2.228,0-4.195-2.08-4.399-4.64
					l-4.172-51.694c-0.046-0.533-0.011-1.04,0.09-1.508h69.994c2.216,0,4.184,2.08,4.398,4.64l4.173,51.693
					C527.328,302.405,527.294,302.911,527.193,303.379z"/>
				<path style="opacity:0.5;fill:#FFFFFF;enable-background:new    ;" d="M527.193,303.379h-69.994c-2.228,0-4.195-2.08-4.399-4.64
					l-4.172-51.694c-0.046-0.533-0.011-1.04,0.09-1.508h69.994c2.216,0,4.184,2.08,4.398,4.64l4.173,51.693
					C527.328,302.405,527.294,302.911,527.193,303.379z"/>
				<polygon style="fill:#263238;enable-background:new    ;" points="480.09,291.324 494.21,291.387 491.477,316.822 
					505.348,317.038 505.348,320.033 467.991,320.122 467.991,317.167 476.994,316.994 				"/>
			</g>
			<path style="opacity:0.3;" d="M494.21,291.387c-0.041,0.38,3.127,11.992,3.127,11.992h-4.415L494.21,291.387z"/>
			<polygon style="opacity:0.3;" points="478.636,303.379 480.09,291.324 476.442,303.379 			"/>
		</g>
		<g>
			<g>
				<rect x="440.23" y="321.415" style="fill:#263238;enable-background:new    ;" width="4.854" height="133.509"/>
				<rect x="440.23" y="321.415" style="opacity:0.3;fill:#FFFFFF;enable-background:new    ;" width="4.854" height="133.509"/>
			</g>
			<g>
				<rect x="405.338" y="321.415" style="fill:#263238;enable-background:new    ;" width="4.854" height="133.509"/>
				<rect x="405.338" y="321.415" style="opacity:0.3;fill:#FFFFFF;enable-background:new    ;" width="4.854" height="133.509"/>
				<polygon style="opacity:0.2;" points="405.338,329.858 405.338,338.474 410.193,336.309 410.193,329.124 				"/>
				<polygon style="opacity:0.2;" points="440.23,329.858 440.23,338.474 445.084,336.309 445.084,329.124 				"/>
			</g>
			<g>
				<rect x="543.656" y="321.415" style="fill:#263238;enable-background:new    ;" width="4.854" height="133.509"/>
				<rect x="543.656" y="321.415" style="opacity:0.3;fill:#FFFFFF;enable-background:new    ;" width="4.854" height="133.509"/>
				<polygon style="opacity:0.2;" points="543.656,329.858 543.656,338.474 548.51,336.309 548.51,329.124 				"/>
			</g>
			<g>
				<rect x="588.219" y="321.415" style="fill:#263238;enable-background:new    ;" width="4.854" height="133.509"/>
				<rect x="588.219" y="321.415" style="opacity:0.3;fill:#FFFFFF;enable-background:new    ;" width="4.854" height="133.509"/>
				<polygon style="opacity:0.2;" points="588.219,329.765 588.219,338.382 593.074,336.216 593.074,329.032 				"/>
			</g>
			<g>
				<rect x="399.048" y="319.975" style="fill:#263238;enable-background:new    ;" width="200.069" height="9.882"/>
				<rect x="552.184" y="319.975" style="opacity:0.3;enable-background:new    ;" width="46.933" height="9.882"/>
			</g>
		</g>
		<polygon style="opacity:0.6;fill:#FFFFFF;enable-background:new    ;" points="480.09,291.324 494.21,291.387 491.477,316.822 
			505.348,317.038 505.348,320.033 467.991,320.122 467.991,317.167 476.994,316.994 		"/>
	</g>
</g>
<g id="Plant">
	<g>
		<g>
			<path style="fill:#407BFF;" d="M394.257,396.038c2.632-3.244,7.719-5.409,13.304-6.451c-0.438,1.598-0.11,3.071,0.835,3.433
				c1.053,0.404,2.466-0.727,3.156-2.526c0.195-0.508,0.303-1.01,0.345-1.485c5.631-0.458,11.262,0.19,15.02,1.994
				c0,0-3.679,3.316-7.847,12.036c-0.128-0.005-0.256-0.009-0.387-0.008c-2.697,0.027-4.871,1.33-4.855,2.909
				c0.012,1.154,1.191,2.133,2.876,2.569c-0.219,0.558-0.438,1.126-0.655,1.716c-3.97,10.745-14.561,2.977-14.466-4.377
				C401.584,405.847,388.359,403.307,394.257,396.038z"/>
			<g>
				<path style="fill:#407BFF;" d="M381.209,382.168c-3.243-3.502-9.205-5.589-15.65-6.359c0.619,1.789,0.355,3.493-0.695,3.977
					c-1.171,0.539-2.866-0.645-3.787-2.644c-0.26-0.564-0.421-1.13-0.505-1.668c-6.454-0.101-12.825,1.059-16.974,3.397
					c0,0,4.443,3.505,9.846,13.135c0.146-0.015,0.291-0.029,0.44-0.037c3.077-0.171,5.652,1.151,5.752,2.953
					c0.073,1.316-1.198,2.521-3.086,3.143c0.291,0.62,0.583,1.251,0.876,1.908c5.33,11.952,16.823,2.305,16.164-6.072
					C373.59,393.9,388.477,390.015,381.209,382.168z"/>
				<g>
					<g>
						<g>
							<path style="fill:#407BFF;" d="M373.332,379.544c1.377-6.723,7.151-13.733,14.5-19.484c0.573,2.66,2.168,4.559,3.819,4.371
								c1.841-0.21,3.043-2.929,2.685-6.074c-0.101-0.887-0.325-1.702-0.622-2.426c7.86-4.935,16.557-8.258,23.401-8.478
								c0,0-2.849,7.622-2.314,23.488c-0.19,0.09-0.38,0.181-0.569,0.282c-3.91,2.084-6.091,5.629-4.871,7.918
								c0.891,1.673,3.353,2.207,6.138,1.564c0.104,0.98,0.216,1.973,0.345,2.998c2.357,18.668-18.965,15.375-24.399,4.585
								C391.445,388.288,370.246,394.609,373.332,379.544z"/>
							<path style="opacity:0.2;fill:#FFFFFF;" d="M373.332,379.544c1.377-6.723,7.151-13.733,14.5-19.484
								c0.573,2.66,2.168,4.559,3.819,4.371c1.841-0.21,3.043-2.929,2.685-6.074c-0.101-0.887-0.325-1.702-0.622-2.426
								c7.86-4.935,16.557-8.258,23.401-8.478c0,0-2.849,7.622-2.314,23.488c-0.19,0.09-0.38,0.181-0.569,0.282
								c-3.91,2.084-6.091,5.629-4.871,7.918c0.891,1.673,3.353,2.207,6.138,1.564c0.104,0.98,0.216,1.973,0.345,2.998
								c2.357,18.668-18.965,15.375-24.399,4.585C391.445,388.288,370.246,394.609,373.332,379.544z"/>
							<g>
								<path style="fill:#263238;" d="M406.192,360.107c0.194-0.216,0.299-0.327,0.299-0.327
									C406.389,359.888,406.292,359.998,406.192,360.107z"/>
							</g>
						</g>
					</g>
				</g>
				<path style="fill:none;stroke:#263238;stroke-width:0.75;stroke-miterlimit:10;" d="M388.694,422.134
					c-3.551-19.739,1.754-40.901,14.196-56.631"/>
				
					<path style="fill:none;stroke:#263238;stroke-width:0.75;stroke-linecap:round;stroke-linejoin:round;stroke-miterlimit:10;" d="
					M362.354,384.2c14.924,7.749,23.169,24.385,25.376,30.856c0,0,18.272-13.258,27.082-18.902"/>
				<g>
					<polygon style="fill:#263238;" points="410.596,428.442 365.729,428.442 365.747,420.223 410.55,420.223 					"/>
					<polygon style="fill:#263238;" points="368.98,425.762 375.99,454.924 401.805,454.924 408.056,425.762 					"/>
					<polygon style="opacity:0.3;" points="369.624,428.442 407.482,428.442 406.789,431.67 370.297,431.67 					"/>
				</g>
			</g>
		</g>
		<path style="fill:none;stroke:#407BFF;stroke-width:0.5;stroke-linecap:round;stroke-linejoin:round;stroke-miterlimit:10;" d="
			M368.231,418.537c1.33,0,2.661,0,3.991,0"/>
		<path style="fill:none;stroke:#407BFF;stroke-width:0.5;stroke-linecap:round;stroke-linejoin:round;stroke-miterlimit:10;" d="
			M374.056,418.537c3.641,0,7.281,0,10.922,0"/>
	</g>
</g>
<g id="Spray">
	<g>
		<g>
			<path style="fill:#407BFF;" d="M428.698,298.843c-1.316-4.113-9.048-8.061-8.719-11.022c0.329-2.961,0.284-6.909,0.284-6.909
				h-7.686c-0.658,0.658-7.238,13.654-4.77,28.952l2.11,10.199h15.492C425.408,320.064,430.014,302.955,428.698,298.843z"/>
			<rect x="411.603" y="277.914" style="fill:#263238;" width="9.139" height="3.802"/>
			<path style="fill:#263238;" d="M405.208,276.037c0,0,1.038-6.776,5.956-7.158s14.043,0,14.043,0v4.59h-4.465v4.445h-8.758v-3.297
				C411.983,274.616,409.798,273.086,405.208,276.037z"/>
			<path style="fill:#263238;" d="M420.742,276.21c0,0,0.703,3.82,6.387,4.229l0.221-0.955c0,0-4.335-1.343-4.45-6.015h-2.158
				V276.21z"/>
		</g>
		<path style="opacity:0.3;fill:#FFFFFF;" d="M422.832,292.082l-15.577,7.825c0,0-0.082,5.856,0,5.779
			c0.082-0.077,18.667-10.73,18.603-10.792C425.794,294.831,422.832,292.082,422.832,292.082z"/>
		<path style="opacity:0.3;fill:#FFFFFF;" d="M407.687,309.071l19.654-12.56c0,0,0.789,1.116,0.758,1.067
			c-0.031-0.05-19.879,13.885-19.879,13.885L407.687,309.071z"/>
	</g>
</g>
<g id="Character_1">
	<g>
		<g>
			<g>
				<g>
					<g>
						<g>
							<path style="fill:#B97964;" d="M268.094,424.169l-0.021,19.605l9.859,0.708l3.465-18.417
								C276.887,423.057,272.45,422.339,268.094,424.169z"/>
						</g>
					</g>
				</g>
			</g>
			<g>
				<g>
					<g>
						<g>
							<g>
								<path style="fill:#263238;" d="M268.416,441.728c-0.97,2.587-1.034,13.174-1.034,13.174l20.897,0.022
									c1.242-3.828-0.68-6.441-3.117-6.788c-1.048-0.148-2.28-1.223-3.178-2.163c-0.006-0.122-1.284-6.002-2.074-6.283
									c0,0-0.544-0.612-1.008-0.001c-0.464,0.61-0.866,2.598-0.866,2.598C274.775,438.236,271.579,438.777,268.416,441.728z"/>
							</g>
						</g>
					</g>
				</g>
			</g>
			<g>
				<g>
					<g>
						<g>
							<path style="fill:#FFFFFF;" d="M268.163,444.801c2.361-0.87,4.895-0.539,6.954,0.907c0.36,0.253,0.702-0.339,0.345-0.59
								c-2.193-1.541-4.965-1.902-7.48-0.975C267.572,444.293,267.749,444.953,268.163,444.801L268.163,444.801z"/>
						</g>
					</g>
				</g>
			</g>
			<g>
				<g>
					<g>
						<path style="fill:#FFFFFF;" d="M288.217,453.375C288.217,453.375,288.217,453.375,288.217,453.375l-20.59-0.022
							c-0.189,0-0.341-0.153-0.341-0.342c0-0.188,0.153-0.341,0.342-0.341c0,0,0,0,0,0l20.59,0.022c0.189,0,0.341,0.153,0.341,0.342
							C288.558,453.223,288.405,453.375,288.217,453.375z"/>
					</g>
				</g>
			</g>
		</g>
		<g>
			<g>
				<g>
					<g>
						<g>
							<path style="fill:#B97964;" d="M294.841,424.169l-0.021,19.605l9.859,0.708l3.465-18.417
								C303.635,423.057,299.198,422.339,294.841,424.169z"/>
						</g>
					</g>
				</g>
			</g>
			<g>
				<g>
					<g>
						<g>
							<g>
								<path style="fill:#263238;" d="M295.163,441.728c-0.97,2.587-1.034,13.174-1.034,13.174l20.897,0.022
									c1.241-3.828-0.68-6.441-3.117-6.788c-1.048-0.148-2.28-1.223-3.178-2.163c-0.006-0.122-1.284-6.002-2.074-6.283
									c0,0-0.544-0.612-1.008-0.001c-0.464,0.61-0.866,2.598-0.866,2.598C301.523,438.236,298.326,438.777,295.163,441.728z"/>
							</g>
						</g>
					</g>
				</g>
			</g>
			<g>
				<g>
					<g>
						<g>
							<path style="fill:#FFFFFF;" d="M294.91,444.801c2.361-0.87,4.895-0.539,6.954,0.907c0.36,0.253,0.702-0.339,0.345-0.59
								c-2.193-1.541-4.965-1.902-7.48-0.975C294.319,444.293,294.496,444.953,294.91,444.801L294.91,444.801z"/>
						</g>
					</g>
				</g>
			</g>
			<g>
				<g>
					<g>
						<path style="fill:#FFFFFF;" d="M314.964,453.375C314.964,453.375,314.964,453.375,314.964,453.375l-20.59-0.022
							c-0.189,0-0.341-0.153-0.341-0.342c0-0.188,0.153-0.341,0.341-0.341c0,0,0,0,0,0l20.59,0.022c0.189,0,0.341,0.153,0.341,0.342
							C315.305,453.223,315.153,453.375,314.964,453.375z"/>
					</g>
				</g>
			</g>
		</g>
		<path style="fill:#263238;" d="M306.332,244.315c0,0,13.389,21.339,18.443,53.956c5.438,35.1,0,86.211,0,86.211H274.97v-66.477
			l-5.037-65.42L306.332,244.315z"/>
		<g>
			<path style="fill:#B97964;" d="M264.913,214.574c-0.491-0.015-3.885,21.608-3.658,22.243c0.838,2.339,25.802-2.884,25.802-2.884
				l1.573,6.675c0,0-10.901,5.293-22.627,7.207c-12.099,1.974-16.625-3.384-16.681-11.591c-0.051-7.52,3.059-25.805,3.059-25.805
				L264.913,214.574z"/>
		</g>
		<g>
			<g>
				<path style="fill:#263238;" d="M306.75,252.507l-38.671-2.24c-5.661,7.415-7.89,21.751-7.494,34.033
					c0.425,7.861,1.756,18.084,3.211,27.865c2.101,14.126,4.46,27.33,4.719,31.159c0.025,0.002,0.421-0.002,0.447,0
					c-0.029,4.959-3.122,21.67-3.127,29.114c-0.014,25.361-0.342,64.229-0.342,64.229h18.791c0,0,8.011-87.157,8.181-92.437
					c0.019-0.586,0.042-1.184,0.067-1.787l0.527-9.223c0.567-8.435,1.323-17.822,1.56-27.306l0.878-15.378
					c11.162-4.022,16.312-17.644,18.192-20.523C310.443,259.261,309.567,257.15,306.75,252.507z"/>
				<g>
					<g>
						<g>
							<g>
								<g>
									<path style="fill:#263238;" d="M312.54,265.424c0,0,5.71,19.669,10.554,66.71c0.924,8.975-2.087,22.544-3.579,30.934
										l-10.251,73.685l-18.119-0.087c1.569-33.896,4.319-72.969,7.667-87.488l-21.623-73.611L312.54,265.424z"/>
								</g>
							</g>
						</g>
					</g>
				</g>
			</g>
			<g style="opacity:0.4;">
				<path style="fill:#FFFFFF;" d="M306.75,252.507l-38.671-2.24c-5.661,7.415-7.89,21.751-7.494,34.033
					c0.425,7.861,1.756,18.084,3.211,27.865c2.101,14.126,4.46,27.33,4.719,31.159c0.025,0.002,0.421-0.002,0.447,0
					c-0.029,4.959-3.122,21.67-3.127,29.114c-0.014,25.361-0.342,64.229-0.342,64.229h18.791c0,0,8.011-87.157,8.181-92.437
					c0.019-0.586,0.042-1.184,0.067-1.787l0.527-9.223c0.567-8.435,1.323-17.822,1.56-27.306l0.878-15.378
					c11.162-4.022,16.312-17.644,18.192-20.523C310.443,259.261,309.567,257.15,306.75,252.507z"/>
				<g>
					<g>
						<g>
							<g>
								<g>
									<path style="fill:#FFFFFF;" d="M312.54,265.424c0,0,5.71,19.669,10.554,66.71c0.924,8.975-2.087,22.544-3.579,30.934
										l-10.251,73.685l-18.119-0.087c1.569-33.896,4.319-72.969,7.667-87.488l-21.623-73.611L312.54,265.424z"/>
								</g>
							</g>
						</g>
					</g>
				</g>
			</g>
			<path style="opacity:0.2;enable-background:new    ;" d="M298.813,349.178l-7.488-25.49c-2.404-10.582-5.302-16.532-7.8-20.27
				c0.036-0.404-0.093-0.844-0.093-0.844c-0.087,0.023-0.775-0.648-1.799-1.715c-0.883-1.084-1.667-1.923-2.292-2.661l0.147,0.386
				c-4.212-4.526-10.279-11.285-10.279-11.285s4.608,10.353,10.907,15.275c0.474,0.37,0.874,0.647,1.228,0.869L298.813,349.178z"/>
		</g>
		<g>
			<g>
				<path style="fill:#407BFF;" d="M309.689,199.353c4.745,9.011,6.6,16.884,6.6,16.884l-18.975,3.577c0,0-4.178-19.605-2.138-24.47
					c1.895-4.516,3.256-2.363,10.099,0.149C307.171,196.189,308.749,197.567,309.689,199.353z"/>
				<path style="fill:#407BFF;" d="M260.28,218.232l-5.761-19.644c3.644-5.439,21.677-9.618,21.677-9.618l11.88,0.65
					c0,0,4.566,1.019,8.475,2.294c5.219,1.702,8.041,3.071,9.285,5.967c0,0,0.54,10.701-0.769,23.923
					c-0.36,3.636,0.454,18.538,1.469,24.782l5.807,15.241c-33.712,14.05-48.967-0.491-48.967-0.491
					c0.976-2.985,3.291-10.796,3.732-13.714c-0.319-3.722-0.491-5.269-2.067-11.786C264.738,234.577,260.809,219.454,260.28,218.232
					z"/>
				<g>
					<path style="fill:#407BFF;" d="M256.019,196.997c-4.224,2.301-6.196,17.284-6.196,17.284l14.73,6.385
						c0,0,5.706-12.837,3.266-18.521C265.744,197.346,261.379,194.064,256.019,196.997z"/>
				</g>
			</g>
		</g>
		<g>
			<g>
				<g>
					<path style="fill:#407BFF;" d="M346.991,205.414c0.568-2.055-0.266-4.321-1.741-5.861c-1.474-1.54-3.502-2.441-5.559-2.999
						c-1.384-0.375-2.851-0.611-4.25-0.292c-1.399,0.319-2.719,1.289-3.116,2.667c-0.308,1.069-0.052,2.281-0.559,3.272
						c-0.301,0.59-0.835,1.02-1.337,1.453c-0.502,0.432-1.007,0.912-1.214,1.542c-0.207,0.629-0.005,1.442,0.601,1.71l-0.385-0.191
						c-0.185,2.979-2.578,5.376-3.243,8.286c-0.617,2.704,0.39,5.638,2.296,7.654c1.905,2.016,4.611,3.165,7.362,3.516
						c2.541,0.325,5.224-0.018,7.43-1.321c1.163-0.687,2.23-1.729,2.46-3.06c0.264-1.528-0.609-2.988-1.307-4.373
						c-0.876-1.741-1.526-3.741-1.024-5.625C344.037,209.421,346.337,207.779,346.991,205.414z"/>
				</g>
				<g style="opacity:0.3;">
					<path style="fill:#FFFFFF;" d="M346.991,205.414c0.568-2.055-0.266-4.321-1.741-5.861c-1.474-1.54-3.502-2.441-5.559-2.999
						c-1.384-0.375-2.851-0.611-4.25-0.292c-1.399,0.319-2.719,1.289-3.116,2.667c-0.308,1.069-0.052,2.281-0.559,3.272
						c-0.301,0.59-0.835,1.02-1.337,1.453c-0.502,0.432-1.007,0.912-1.214,1.542c-0.207,0.629-0.005,1.442,0.601,1.71l-0.385-0.191
						c-0.185,2.979-2.578,5.376-3.243,8.286c-0.617,2.704,0.39,5.638,2.296,7.654c1.905,2.016,4.611,3.165,7.362,3.516
						c2.541,0.325,5.224-0.018,7.43-1.321c1.163-0.687,2.23-1.729,2.46-3.06c0.264-1.528-0.609-2.988-1.307-4.373
						c-0.876-1.741-1.526-3.741-1.024-5.625C344.037,209.421,346.337,207.779,346.991,205.414z"/>
				</g>
			</g>
			<g>
				<g>
					<path style="fill:#B97964;" d="M314.639,216.549l5.375,13.482l9.297-12.249l7.277,3.041c0,0-5.701,9.573-10.201,19.258
						c-4.792,10.313-11.26,8.52-15.17,1.304c-3.582-6.612-9.553-22.391-9.553-22.391L314.639,216.549z"/>
				</g>
			</g>
		</g>
		<g>
			<g>
				<path style="fill:#B97964;" d="M275.456,172.839c1.043,5.215,3.421,15.646-0.188,19.14c0,0,1.45,5.215,11.088,5.215
					c10.587,0,5.028-5.215,5.028-5.215c-5.789-1.377-5.674-5.664-4.683-9.69L275.456,172.839z"/>
				<path style="fill:#263238;" d="M297.275,163.272c-0.128-0.001-0.251-0.052-0.343-0.142c-0.18-0.184-0.18-0.478,0-0.662
					c1.08-1.046,2.594-1.515,4.077-1.264c0.248,0.057,0.403,0.304,0.346,0.552c-0.001,0.005-0.002,0.01-0.004,0.015
					c-0.052,0.249-0.296,0.409-0.546,0.357c-0.003-0.001-0.007-0.001-0.01-0.002c-1.177-0.208-2.381,0.172-3.226,1.016
					C297.494,163.223,297.387,163.27,297.275,163.272z"/>
				<path style="fill:#A24E3F;" d="M298.717,169.31c0.282,1.941,0.83,3.834,1.631,5.625c-0.938,0.387-1.999,0.335-2.895-0.142
					L298.717,169.31z"/>
				<path style="fill:#263238;" d="M298.315,167.809c-0.177,0.78,0.095,1.512,0.603,1.631c0.508,0.118,1.064-0.413,1.182-1.182
					c0.118-0.768-0.083-1.501-0.591-1.631C299,166.497,298.504,167.029,298.315,167.809z"/>
				<path style="fill:#263238;" d="M299.343,166.604l1.985-0.095C301.328,166.509,300.04,167.75,299.343,166.604z"/>
				<path style="fill:#B97964;" d="M272.827,158.947c-1.619,9.701-2.505,13.766,1.182,19.816c5.554,9.087,17.795,9.028,22.262,0
					c4.029-8.094,5.991-22.593-2.47-28.607c-5.958-4.312-14.284-2.977-18.596,2.981
					C273.961,154.856,273.146,156.848,272.827,158.947z"/>
				<path style="fill:#263238;" d="M284.749,145.567c8.093-3.325,16.544-1.096,17.359,7.318c0.815,8.413-8.661,16.425-8.661,16.425
					L284.749,145.567z"/>
				<path style="fill:#B97964;" d="M288.649,167.407c-0.222,1.894,0.309,3.799,1.477,5.305c1.572,1.973,3.817,0.934,4.608-1.312
					c0.721-2.021,0.756-5.495-1.406-6.664c-1.578-0.812-3.516-0.191-4.329,1.387C288.795,166.523,288.676,166.96,288.649,167.407z"
					/>
				
					<path style="opacity:0.3;fill:none;stroke:#000000;stroke-width:0.5;stroke-linecap:round;stroke-linejoin:round;stroke-miterlimit:10;" d="
					M292.462,167.155c-0.395-0.051-0.787,0.186-1.007,0.517c-0.22,0.331-0.293,0.74-0.3,1.138c-0.024,1.216,0.539,2.43,1.482,3.198"
					/>
			</g>
			<g>
				<path style="opacity:0.3;" d="M257.1,201.691c0.064,0.202,2.347,13.581,6.985,14.802c2.21,0.582,19.945,0.262,19.945,0.262
					l1.571-2.466l2.669,2.466h11.268l-6.439-11.215l0.658-18.314L257.1,201.691z"/>
				<path style="fill:#263238;" d="M291.722,169.05c3.982-7.576,1.723-21.275-7.072-23.843c-7.909-2.308-20.448,0.056-19.975,14.212
					c0.473,14.156-2.832,12.675-6.404,21.766c-3.75,9.544-2.651,22.108,3.692,32.392h17.515l3.196-4.602l3.786,4.602h15.206
					c-7.505-10.413-3.019-14.479-2.109-23.932C300.466,180.193,288.299,175.562,291.722,169.05z"/>
				<path style="fill:#407BFF;" d="M273.713,147.822c-0.468-1.083-1.42-2.059-2.596-2.134c-0.605-0.038-1.196,0.161-1.769,0.359
					l-0.108,0.748c-0.461,1.172-1.405,2.075-2.113,3.116c-0.708,1.041-1.179,2.434-0.577,3.54c0.45,0.827,1.405,1.274,2.342,1.374
					c1.701,0.18,3.455-0.679,4.408-2.1C274.253,151.304,274.392,149.392,273.713,147.822z"/>
				<path style="fill:#263238;" d="M271.664,153.105c0.577-1.266,0.973-4.151,0.706-5.229c-0.395-1.592-1.511-2.92-2.791-3.945
					c-0.649-0.52-1.357-0.983-2.145-1.249c-1.293-0.437-2.71-0.316-4.042-0.019c-1.51,0.336-3.017,0.92-4.114,2.011
					c-1.49,1.481-2.017,3.851-1.297,5.824c0.72,1.973,2.651,3.446,4.745,3.619c-1.31,0.38-2.557,0.978-3.673,1.762
					c-0.098,0.069-0.204,0.154-0.216,0.274c-0.011,0.113,0.068,0.215,0.147,0.296c0.689,0.71,1.74,0.97,2.727,0.912
					c0.987-0.057,1.934-0.395,2.865-0.728c-0.288,0.957-0.575,1.913-0.863,2.87c-0.089,0.295-0.178,0.609-0.094,0.905
					c0.189,0.671,1.085,0.812,1.77,0.689c2.098-0.374,3.82-1.971,4.844-3.839C270.939,155.968,271.353,154.55,271.664,153.105z"/>
			</g>
		</g>
		<g>
			<path style="fill:#263238;" d="M311.135,255.89c-1.762-4.633-5.919-23.962-5.919-23.962l-18.499,17.534
				c-3.376,1.735-7.727,1.668-11.502-0.263c-5.849-2.993-9.529-10.637-9.529-10.637s0.647,4.509,0.569,8.746
				c-0.079,4.237-2.114,10.546-2.114,10.546s6.53-1.929,18.043-2.954c11.513-1.025,33.15,13.705,33.15,13.705
				S312.897,260.523,311.135,255.89z"/>
			<g>
				<g>
					<path style="fill:#263238;" d="M282.509,251.377c-0.73-6.24-3.353-12.169-7.591-16.826c-0.793-0.872-1.956-1.788-3.015-0.695
						c-0.923,0.953-0.789,2.532-0.556,3.719c0.603,3.087,2.742,5.958,4.671,8.362c2.281,2.843,4.997,5.3,8.015,7.34
						c0.802,0.542,1.553-0.757,0.757-1.295c-4.336-2.93-8.04-6.839-10.626-11.398c-0.696-1.227-1.332-2.57-1.457-3.996
						c-0.031-0.358-0.138-1.666,0.407-1.636c0.435,0.023,1.072,1.023,1.343,1.341c1.661,1.949,3.039,4.14,4.118,6.461
						c1.263,2.715,2.085,5.648,2.433,8.622C281.12,252.324,282.621,252.336,282.509,251.377L282.509,251.377z"/>
				</g>
			</g>
			<g>
				<g>
					<path style="fill:#263238;" d="M282.221,251.907c2.39-1.249,3.657-3.689,4.603-6.104c1.202-3.07,2.006-6.291,2.408-9.563
						c0.132-1.072,0.182-2.415-0.796-3.13c-1.002-0.732-2.216-0.252-3.049,0.5c-2.091,1.886-3.204,5.017-3.701,7.71
						c-0.696,3.767-0.321,7.596,0.071,11.374c0.099,0.951,1.6,0.961,1.5,0c-0.36-3.473-0.756-7.032-0.206-10.506
						c0.236-1.493,0.637-2.983,1.274-4.357c0.308-0.664,0.669-1.307,1.084-1.91c0.333-0.484,1.004-1.553,1.652-1.64
						c1.43-0.192,0.46,3.422,0.313,4.195c-0.308,1.615-0.718,3.21-1.225,4.773c-0.882,2.718-1.987,5.952-4.685,7.363
						C280.608,251.059,281.366,252.355,282.221,251.907L282.221,251.907z"/>
				</g>
			</g>
			<g>
				<g>
					<path style="fill:#263238;" d="M279.189,253.924c0.242,0.081,0.485,0.163,0.727,0.244c-0.184-0.241-0.367-0.482-0.551-0.723
						c-1.117,8.454-1.566,16.976-1.345,25.5c0.025,0.964,1.525,0.967,1.5,0c-0.221-8.524,0.228-17.047,1.345-25.5
						c0.044-0.334-0.267-0.628-0.551-0.723c-0.242-0.081-0.485-0.163-0.727-0.244C278.671,252.169,278.277,253.618,279.189,253.924
						L279.189,253.924z"/>
				</g>
			</g>
			<g>
				<g>
					<path style="fill:#263238;" d="M279.9,253.902c2.069,8.117,5.07,15.967,8.932,23.4c0.445,0.857,1.74,0.099,1.295-0.757
						c-3.804-7.322-6.743-15.047-8.78-23.042C281.108,252.569,279.661,252.965,279.9,253.902L279.9,253.902z"/>
				</g>
			</g>
		</g>
		<path style="fill:#407BFF;" d="M264.309,310.039"/>
		<g>
			<g>
				<g>
					<g>
						<g>
							<g>
								<g>
									<path style="fill:#B97964;" d="M329.39,217.954c0,0-1.641-2.454-1.138-4.842c0.503-2.389,0.269-4.43,0.765-6.18
										c0.497-1.75,1.533,0.476,1.845,1.771c0.312,1.295,0.679,2.761,1.614,2.369c0.935-0.391,6.237-7.315,7.595-7.71
										c1.358-0.396,0.851,0.992,0.851,0.992s1.333-1.647,2.129-1.296c0.207,0.091,0.54,0.638,0.05,1.484
										c-1.102,1.902-3.62,5.776-3.62,5.776c0.14-0.225,3.59-4.785,4.195-5.4c0.792-0.804,1.576-0.78,2.027-0.306
										c0.643,0.675-3.442,6.474-3.443,6.839c0,0,2.24-3.417,3.438-3.322c1.199,0.096-0.094,2.324-1.607,4.072
										c-1.387,1.602-3.688,5.109-5.256,6.601c-1.932,1.839-3.642,2.639-5.961,1.703
										C330.555,219.568,329.39,217.954,329.39,217.954z"/>
								</g>
							</g>
						</g>
					</g>
				</g>
			</g>
		</g>
	</g>
</g>
</svg>
