<svg xmlns="http://www.w3.org/2000/svg" viewBox="0 0 400 400">
  <!-- Wall -->
  <rect x="20" y="50" width="250" height="300" fill="#e2e8f0" stroke="#cbd5e0" stroke-width="2"/>
  
  <!-- Painted section -->
  <rect x="20" y="50" width="150" height="200" fill="#3182ce" opacity="0.8"/>
  
  <!-- Person painting -->
  <g transform="translate(180, 250)">
    <!-- Head -->
    <circle cx="0" cy="-70" r="20" fill="#fdbcb4" stroke="#2d3748" stroke-width="2"/>
    <!-- Hair -->
    <path d="M-20 -85 Q0 -95 20 -85 Q15 -75 10 -70 L-10 -70 Q-15 -75 -20 -85" fill="#4a5568"/>
    <!-- Body -->
    <rect x="-15" y="-50" width="30" height="40" fill="#60a5fa" rx="5"/>
    <!-- Arms -->
    <rect x="-15" y="-45" width="12" height="35" fill="#fdbcb4" rx="6" transform="rotate(-20 -9 -27)"/>
    <rect x="3" y="-45" width="12" height="45" fill="#fdbcb4" rx="6" transform="rotate(30 9 -22)"/>
    <!-- Legs -->
    <rect x="-12" y="-10" width="10" height="40" fill="#4a5568" rx="5"/>
    <rect x="2" y="-10" width="10" height="40" fill="#4a5568" rx="5"/>
    <!-- Shoes -->
    <ellipse cx="-7" cy="30" rx="8" ry="5" fill="#2d3748"/>
    <ellipse cx="7" cy="30" rx="8" ry="5" fill="#2d3748"/>
    <!-- Cap -->
    <path d="M-20 -85 Q0 -90 20 -85 L20 -80 L-20 -80 Z" fill="#ef4444"/>
    <ellipse cx="0" cy="-80" rx="22" ry="3" fill="#dc2626"/>
  </g>
  
  <!-- Paint roller in hand -->
  <g transform="translate(210, 150)">
    <!-- Handle -->
    <rect x="0" y="20" width="8" height="60" fill="#4a5568" rx="4" transform="rotate(30 4 50)"/>
    <!-- Roller holder -->
    <rect x="-10" y="10" width="28" height="15" fill="#2d3748" rx="3" transform="rotate(30 4 17)"/>
    <!-- Roller -->
    <rect x="-15" y="-10" width="38" height="25" fill="#3182ce" rx="5" transform="rotate(30 4 2)"/>
    <!-- Paint drip -->
    <ellipse cx="4" cy="15" rx="3" ry="8" fill="#3182ce" transform="rotate(30 4 15)"/>
  </g>
  
  <!-- Paint bucket on floor -->
  <g transform="translate(280, 320)">
    <path d="M0 0 L5 -40 L35 -40 L40 0 Z" fill="#718096" stroke="#4a5568" stroke-width="2"/>
    <ellipse cx="20" cy="-40" rx="20" ry="5" fill="#4a5568"/>
    <rect x="5" y="-35" width="30" height="25" fill="#3182ce"/>
    <!-- Handle -->
    <path d="M10 -45 Q20 -55 30 -45" fill="none" stroke="#2d3748" stroke-width="3" stroke-linecap="round"/>
  </g>
  
  <!-- Paint drops -->
  <circle cx="140" cy="260" r="4" fill="#3182ce" opacity="0.8"/>
  <circle cx="150" cy="280" r="3" fill="#3182ce" opacity="0.7"/>
  <circle cx="130" cy="275" r="3.5" fill="#3182ce" opacity="0.75"/>
  
  <!-- Floor line -->
  <line x1="0" y1="350" x2="400" y2="350" stroke="#cbd5e0" stroke-width="2"/>
</svg>